<?xml version="1.0" encoding="utf-8" standalone="no"?>
<!DOCTYPE svg PUBLIC "-//W3C//DTD SVG 1.1//EN"
  "http://www.w3.org/Graphics/SVG/1.1/DTD/svg11.dtd">
<!-- Created with matplotlib (https://matplotlib.org/) -->
<svg height="345.6pt" version="1.1" viewBox="0 0 460.8 345.6" width="460.8pt" xmlns="http://www.w3.org/2000/svg" xmlns:xlink="http://www.w3.org/1999/xlink">
 <defs>
  <style type="text/css">
*{stroke-linecap:butt;stroke-linejoin:round;}
  </style>
 </defs>
 <g id="figure_1">
  <g id="patch_1">
   <path d="M 0 345.6 
L 460.8 345.6 
L 460.8 0 
L 0 0 
z
" style="fill:#ffffff;"/>
  </g>
  <g id="axes_1">
   <g id="patch_2">
    <path d="M 57.6 307.584 
L 414.72 307.584 
L 414.72 41.472 
L 57.6 41.472 
z
" style="fill:#ffffff;"/>
   </g>
   <g id="matplotlib.axis_1">
    <g id="xtick_1">
     <g id="line2d_1">
      <defs>
       <path d="M 0 0 
L 0 3.5 
" id="mc8639b2e01" style="stroke:#000000;stroke-width:0.8;"/>
      </defs>
      <g>
       <use style="stroke:#000000;stroke-width:0.8;" x="99.731081" xlink:href="#mc8639b2e01" y="307.584"/>
      </g>
     </g>
     <g id="text_1">
      <!-- −15.0 -->
      <defs>
       <path d="M 10.59375 35.5 
L 73.1875 35.5 
L 73.1875 27.203125 
L 10.59375 27.203125 
z
" id="DejaVuSans-8722"/>
       <path d="M 12.40625 8.296875 
L 28.515625 8.296875 
L 28.515625 63.921875 
L 10.984375 60.40625 
L 10.984375 69.390625 
L 28.421875 72.90625 
L 38.28125 72.90625 
L 38.28125 8.296875 
L 54.390625 8.296875 
L 54.390625 0 
L 12.40625 0 
z
" id="DejaVuSans-49"/>
       <path d="M 10.796875 72.90625 
L 49.515625 72.90625 
L 49.515625 64.59375 
L 19.828125 64.59375 
L 19.828125 46.734375 
Q 21.96875 47.46875 24.109375 47.828125 
Q 26.265625 48.1875 28.421875 48.1875 
Q 40.625 48.1875 47.75 41.5 
Q 54.890625 34.8125 54.890625 23.390625 
Q 54.890625 11.625 47.5625 5.09375 
Q 40.234375 -1.421875 26.90625 -1.421875 
Q 22.3125 -1.421875 17.546875 -0.640625 
Q 12.796875 0.140625 7.71875 1.703125 
L 7.71875 11.625 
Q 12.109375 9.234375 16.796875 8.0625 
Q 21.484375 6.890625 26.703125 6.890625 
Q 35.15625 6.890625 40.078125 11.328125 
Q 45.015625 15.765625 45.015625 23.390625 
Q 45.015625 31 40.078125 35.4375 
Q 35.15625 39.890625 26.703125 39.890625 
Q 22.75 39.890625 18.8125 39.015625 
Q 14.890625 38.140625 10.796875 36.28125 
z
" id="DejaVuSans-53"/>
       <path d="M 10.6875 12.40625 
L 21 12.40625 
L 21 0 
L 10.6875 0 
z
" id="DejaVuSans-46"/>
       <path d="M 31.78125 66.40625 
Q 24.171875 66.40625 20.328125 58.90625 
Q 16.5 51.421875 16.5 36.375 
Q 16.5 21.390625 20.328125 13.890625 
Q 24.171875 6.390625 31.78125 6.390625 
Q 39.453125 6.390625 43.28125 13.890625 
Q 47.125 21.390625 47.125 36.375 
Q 47.125 51.421875 43.28125 58.90625 
Q 39.453125 66.40625 31.78125 66.40625 
z
M 31.78125 74.21875 
Q 44.046875 74.21875 50.515625 64.515625 
Q 56.984375 54.828125 56.984375 36.375 
Q 56.984375 17.96875 50.515625 8.265625 
Q 44.046875 -1.421875 31.78125 -1.421875 
Q 19.53125 -1.421875 13.0625 8.265625 
Q 6.59375 17.96875 6.59375 36.375 
Q 6.59375 54.828125 13.0625 64.515625 
Q 19.53125 74.21875 31.78125 74.21875 
z
" id="DejaVuSans-48"/>
      </defs>
      <g transform="translate(84.408424 322.182437)scale(0.1 -0.1)">
       <use xlink:href="#DejaVuSans-8722"/>
       <use x="83.789062" xlink:href="#DejaVuSans-49"/>
       <use x="147.412109" xlink:href="#DejaVuSans-53"/>
       <use x="211.035156" xlink:href="#DejaVuSans-46"/>
       <use x="242.822266" xlink:href="#DejaVuSans-48"/>
      </g>
     </g>
    </g>
    <g id="xtick_2">
     <g id="line2d_2">
      <g>
       <use style="stroke:#000000;stroke-width:0.8;" x="160.546491" xlink:href="#mc8639b2e01" y="307.584"/>
      </g>
     </g>
     <g id="text_2">
      <!-- −14.5 -->
      <defs>
       <path d="M 37.796875 64.3125 
L 12.890625 25.390625 
L 37.796875 25.390625 
z
M 35.203125 72.90625 
L 47.609375 72.90625 
L 47.609375 25.390625 
L 58.015625 25.390625 
L 58.015625 17.1875 
L 47.609375 17.1875 
L 47.609375 0 
L 37.796875 0 
L 37.796875 17.1875 
L 4.890625 17.1875 
L 4.890625 26.703125 
z
" id="DejaVuSans-52"/>
      </defs>
      <g transform="translate(145.223835 322.182437)scale(0.1 -0.1)">
       <use xlink:href="#DejaVuSans-8722"/>
       <use x="83.789062" xlink:href="#DejaVuSans-49"/>
       <use x="147.412109" xlink:href="#DejaVuSans-52"/>
       <use x="211.035156" xlink:href="#DejaVuSans-46"/>
       <use x="242.822266" xlink:href="#DejaVuSans-53"/>
      </g>
     </g>
    </g>
    <g id="xtick_3">
     <g id="line2d_3">
      <g>
       <use style="stroke:#000000;stroke-width:0.8;" x="221.361902" xlink:href="#mc8639b2e01" y="307.584"/>
      </g>
     </g>
     <g id="text_3">
      <!-- −14.0 -->
      <g transform="translate(206.039246 322.182437)scale(0.1 -0.1)">
       <use xlink:href="#DejaVuSans-8722"/>
       <use x="83.789062" xlink:href="#DejaVuSans-49"/>
       <use x="147.412109" xlink:href="#DejaVuSans-52"/>
       <use x="211.035156" xlink:href="#DejaVuSans-46"/>
       <use x="242.822266" xlink:href="#DejaVuSans-48"/>
      </g>
     </g>
    </g>
    <g id="xtick_4">
     <g id="line2d_4">
      <g>
       <use style="stroke:#000000;stroke-width:0.8;" x="282.177313" xlink:href="#mc8639b2e01" y="307.584"/>
      </g>
     </g>
     <g id="text_4">
      <!-- −13.5 -->
      <defs>
       <path d="M 40.578125 39.3125 
Q 47.65625 37.796875 51.625 33 
Q 55.609375 28.21875 55.609375 21.1875 
Q 55.609375 10.40625 48.1875 4.484375 
Q 40.765625 -1.421875 27.09375 -1.421875 
Q 22.515625 -1.421875 17.65625 -0.515625 
Q 12.796875 0.390625 7.625 2.203125 
L 7.625 11.71875 
Q 11.71875 9.328125 16.59375 8.109375 
Q 21.484375 6.890625 26.8125 6.890625 
Q 36.078125 6.890625 40.9375 10.546875 
Q 45.796875 14.203125 45.796875 21.1875 
Q 45.796875 27.640625 41.28125 31.265625 
Q 36.765625 34.90625 28.71875 34.90625 
L 20.21875 34.90625 
L 20.21875 43.015625 
L 29.109375 43.015625 
Q 36.375 43.015625 40.234375 45.921875 
Q 44.09375 48.828125 44.09375 54.296875 
Q 44.09375 59.90625 40.109375 62.90625 
Q 36.140625 65.921875 28.71875 65.921875 
Q 24.65625 65.921875 20.015625 65.03125 
Q 15.375 64.15625 9.8125 62.3125 
L 9.8125 71.09375 
Q 15.4375 72.65625 20.34375 73.4375 
Q 25.25 74.21875 29.59375 74.21875 
Q 40.828125 74.21875 47.359375 69.109375 
Q 53.90625 64.015625 53.90625 55.328125 
Q 53.90625 49.265625 50.4375 45.09375 
Q 46.96875 40.921875 40.578125 39.3125 
z
" id="DejaVuSans-51"/>
      </defs>
      <g transform="translate(266.854656 322.182437)scale(0.1 -0.1)">
       <use xlink:href="#DejaVuSans-8722"/>
       <use x="83.789062" xlink:href="#DejaVuSans-49"/>
       <use x="147.412109" xlink:href="#DejaVuSans-51"/>
       <use x="211.035156" xlink:href="#DejaVuSans-46"/>
       <use x="242.822266" xlink:href="#DejaVuSans-53"/>
      </g>
     </g>
    </g>
    <g id="xtick_5">
     <g id="line2d_5">
      <g>
       <use style="stroke:#000000;stroke-width:0.8;" x="342.992723" xlink:href="#mc8639b2e01" y="307.584"/>
      </g>
     </g>
     <g id="text_5">
      <!-- −13.0 -->
      <g transform="translate(327.670067 322.182437)scale(0.1 -0.1)">
       <use xlink:href="#DejaVuSans-8722"/>
       <use x="83.789062" xlink:href="#DejaVuSans-49"/>
       <use x="147.412109" xlink:href="#DejaVuSans-51"/>
       <use x="211.035156" xlink:href="#DejaVuSans-46"/>
       <use x="242.822266" xlink:href="#DejaVuSans-48"/>
      </g>
     </g>
    </g>
    <g id="xtick_6">
     <g id="line2d_6">
      <g>
       <use style="stroke:#000000;stroke-width:0.8;" x="403.808134" xlink:href="#mc8639b2e01" y="307.584"/>
      </g>
     </g>
     <g id="text_6">
      <!-- −12.5 -->
      <defs>
       <path d="M 19.1875 8.296875 
L 53.609375 8.296875 
L 53.609375 0 
L 7.328125 0 
L 7.328125 8.296875 
Q 12.9375 14.109375 22.625 23.890625 
Q 32.328125 33.6875 34.8125 36.53125 
Q 39.546875 41.84375 41.421875 45.53125 
Q 43.3125 49.21875 43.3125 52.78125 
Q 43.3125 58.59375 39.234375 62.25 
Q 35.15625 65.921875 28.609375 65.921875 
Q 23.96875 65.921875 18.8125 64.3125 
Q 13.671875 62.703125 7.8125 59.421875 
L 7.8125 69.390625 
Q 13.765625 71.78125 18.9375 73 
Q 24.125 74.21875 28.421875 74.21875 
Q 39.75 74.21875 46.484375 68.546875 
Q 53.21875 62.890625 53.21875 53.421875 
Q 53.21875 48.921875 51.53125 44.890625 
Q 49.859375 40.875 45.40625 35.40625 
Q 44.1875 33.984375 37.640625 27.21875 
Q 31.109375 20.453125 19.1875 8.296875 
z
" id="DejaVuSans-50"/>
      </defs>
      <g transform="translate(388.485478 322.182437)scale(0.1 -0.1)">
       <use xlink:href="#DejaVuSans-8722"/>
       <use x="83.789062" xlink:href="#DejaVuSans-49"/>
       <use x="147.412109" xlink:href="#DejaVuSans-50"/>
       <use x="211.035156" xlink:href="#DejaVuSans-46"/>
       <use x="242.822266" xlink:href="#DejaVuSans-53"/>
      </g>
     </g>
    </g>
   </g>
   <g id="matplotlib.axis_2">
    <g id="ytick_1">
     <g id="line2d_7">
      <defs>
       <path d="M 0 0 
L -3.5 0 
" id="mdeaff1e20f" style="stroke:#000000;stroke-width:0.8;"/>
      </defs>
      <g>
       <use style="stroke:#000000;stroke-width:0.8;" x="57.6" xlink:href="#mdeaff1e20f" y="298.766212"/>
      </g>
     </g>
     <g id="text_7">
      <!-- 13 -->
      <g transform="translate(37.875 302.56543)scale(0.1 -0.1)">
       <use xlink:href="#DejaVuSans-49"/>
       <use x="63.623047" xlink:href="#DejaVuSans-51"/>
      </g>
     </g>
    </g>
    <g id="ytick_2">
     <g id="line2d_8">
      <g>
       <use style="stroke:#000000;stroke-width:0.8;" x="57.6" xlink:href="#mdeaff1e20f" y="266.005465"/>
      </g>
     </g>
     <g id="text_8">
      <!-- 14 -->
      <g transform="translate(37.875 269.804684)scale(0.1 -0.1)">
       <use xlink:href="#DejaVuSans-49"/>
       <use x="63.623047" xlink:href="#DejaVuSans-52"/>
      </g>
     </g>
    </g>
    <g id="ytick_3">
     <g id="line2d_9">
      <g>
       <use style="stroke:#000000;stroke-width:0.8;" x="57.6" xlink:href="#mdeaff1e20f" y="233.244719"/>
      </g>
     </g>
     <g id="text_9">
      <!-- 15 -->
      <g transform="translate(37.875 237.043937)scale(0.1 -0.1)">
       <use xlink:href="#DejaVuSans-49"/>
       <use x="63.623047" xlink:href="#DejaVuSans-53"/>
      </g>
     </g>
    </g>
    <g id="ytick_4">
     <g id="line2d_10">
      <g>
       <use style="stroke:#000000;stroke-width:0.8;" x="57.6" xlink:href="#mdeaff1e20f" y="200.483972"/>
      </g>
     </g>
     <g id="text_10">
      <!-- 16 -->
      <defs>
       <path d="M 33.015625 40.375 
Q 26.375 40.375 22.484375 35.828125 
Q 18.609375 31.296875 18.609375 23.390625 
Q 18.609375 15.53125 22.484375 10.953125 
Q 26.375 6.390625 33.015625 6.390625 
Q 39.65625 6.390625 43.53125 10.953125 
Q 47.40625 15.53125 47.40625 23.390625 
Q 47.40625 31.296875 43.53125 35.828125 
Q 39.65625 40.375 33.015625 40.375 
z
M 52.59375 71.296875 
L 52.59375 62.3125 
Q 48.875 64.0625 45.09375 64.984375 
Q 41.3125 65.921875 37.59375 65.921875 
Q 27.828125 65.921875 22.671875 59.328125 
Q 17.53125 52.734375 16.796875 39.40625 
Q 19.671875 43.65625 24.015625 45.921875 
Q 28.375 48.1875 33.59375 48.1875 
Q 44.578125 48.1875 50.953125 41.515625 
Q 57.328125 34.859375 57.328125 23.390625 
Q 57.328125 12.15625 50.6875 5.359375 
Q 44.046875 -1.421875 33.015625 -1.421875 
Q 20.359375 -1.421875 13.671875 8.265625 
Q 6.984375 17.96875 6.984375 36.375 
Q 6.984375 53.65625 15.1875 63.9375 
Q 23.390625 74.21875 37.203125 74.21875 
Q 40.921875 74.21875 44.703125 73.484375 
Q 48.484375 72.75 52.59375 71.296875 
z
" id="DejaVuSans-54"/>
      </defs>
      <g transform="translate(37.875 204.283191)scale(0.1 -0.1)">
       <use xlink:href="#DejaVuSans-49"/>
       <use x="63.623047" xlink:href="#DejaVuSans-54"/>
      </g>
     </g>
    </g>
    <g id="ytick_5">
     <g id="line2d_11">
      <g>
       <use style="stroke:#000000;stroke-width:0.8;" x="57.6" xlink:href="#mdeaff1e20f" y="167.723225"/>
      </g>
     </g>
     <g id="text_11">
      <!-- 17 -->
      <defs>
       <path d="M 8.203125 72.90625 
L 55.078125 72.90625 
L 55.078125 68.703125 
L 28.609375 0 
L 18.3125 0 
L 43.21875 64.59375 
L 8.203125 64.59375 
z
" id="DejaVuSans-55"/>
      </defs>
      <g transform="translate(37.875 171.522444)scale(0.1 -0.1)">
       <use xlink:href="#DejaVuSans-49"/>
       <use x="63.623047" xlink:href="#DejaVuSans-55"/>
      </g>
     </g>
    </g>
    <g id="ytick_6">
     <g id="line2d_12">
      <g>
       <use style="stroke:#000000;stroke-width:0.8;" x="57.6" xlink:href="#mdeaff1e20f" y="134.962479"/>
      </g>
     </g>
     <g id="text_12">
      <!-- 18 -->
      <defs>
       <path d="M 31.78125 34.625 
Q 24.75 34.625 20.71875 30.859375 
Q 16.703125 27.09375 16.703125 20.515625 
Q 16.703125 13.921875 20.71875 10.15625 
Q 24.75 6.390625 31.78125 6.390625 
Q 38.8125 6.390625 42.859375 10.171875 
Q 46.921875 13.96875 46.921875 20.515625 
Q 46.921875 27.09375 42.890625 30.859375 
Q 38.875 34.625 31.78125 34.625 
z
M 21.921875 38.8125 
Q 15.578125 40.375 12.03125 44.71875 
Q 8.5 49.078125 8.5 55.328125 
Q 8.5 64.0625 14.71875 69.140625 
Q 20.953125 74.21875 31.78125 74.21875 
Q 42.671875 74.21875 48.875 69.140625 
Q 55.078125 64.0625 55.078125 55.328125 
Q 55.078125 49.078125 51.53125 44.71875 
Q 48 40.375 41.703125 38.8125 
Q 48.828125 37.15625 52.796875 32.3125 
Q 56.78125 27.484375 56.78125 20.515625 
Q 56.78125 9.90625 50.3125 4.234375 
Q 43.84375 -1.421875 31.78125 -1.421875 
Q 19.734375 -1.421875 13.25 4.234375 
Q 6.78125 9.90625 6.78125 20.515625 
Q 6.78125 27.484375 10.78125 32.3125 
Q 14.796875 37.15625 21.921875 38.8125 
z
M 18.3125 54.390625 
Q 18.3125 48.734375 21.84375 45.5625 
Q 25.390625 42.390625 31.78125 42.390625 
Q 38.140625 42.390625 41.71875 45.5625 
Q 45.3125 48.734375 45.3125 54.390625 
Q 45.3125 60.0625 41.71875 63.234375 
Q 38.140625 66.40625 31.78125 66.40625 
Q 25.390625 66.40625 21.84375 63.234375 
Q 18.3125 60.0625 18.3125 54.390625 
z
" id="DejaVuSans-56"/>
      </defs>
      <g transform="translate(37.875 138.761698)scale(0.1 -0.1)">
       <use xlink:href="#DejaVuSans-49"/>
       <use x="63.623047" xlink:href="#DejaVuSans-56"/>
      </g>
     </g>
    </g>
    <g id="ytick_7">
     <g id="line2d_13">
      <g>
       <use style="stroke:#000000;stroke-width:0.8;" x="57.6" xlink:href="#mdeaff1e20f" y="102.201732"/>
      </g>
     </g>
     <g id="text_13">
      <!-- 19 -->
      <defs>
       <path d="M 10.984375 1.515625 
L 10.984375 10.5 
Q 14.703125 8.734375 18.5 7.8125 
Q 22.3125 6.890625 25.984375 6.890625 
Q 35.75 6.890625 40.890625 13.453125 
Q 46.046875 20.015625 46.78125 33.40625 
Q 43.953125 29.203125 39.59375 26.953125 
Q 35.25 24.703125 29.984375 24.703125 
Q 19.046875 24.703125 12.671875 31.3125 
Q 6.296875 37.9375 6.296875 49.421875 
Q 6.296875 60.640625 12.9375 67.421875 
Q 19.578125 74.21875 30.609375 74.21875 
Q 43.265625 74.21875 49.921875 64.515625 
Q 56.59375 54.828125 56.59375 36.375 
Q 56.59375 19.140625 48.40625 8.859375 
Q 40.234375 -1.421875 26.421875 -1.421875 
Q 22.703125 -1.421875 18.890625 -0.6875 
Q 15.09375 0.046875 10.984375 1.515625 
z
M 30.609375 32.421875 
Q 37.25 32.421875 41.125 36.953125 
Q 45.015625 41.5 45.015625 49.421875 
Q 45.015625 57.28125 41.125 61.84375 
Q 37.25 66.40625 30.609375 66.40625 
Q 23.96875 66.40625 20.09375 61.84375 
Q 16.21875 57.28125 16.21875 49.421875 
Q 16.21875 41.5 20.09375 36.953125 
Q 23.96875 32.421875 30.609375 32.421875 
z
" id="DejaVuSans-57"/>
      </defs>
      <g transform="translate(37.875 106.000951)scale(0.1 -0.1)">
       <use xlink:href="#DejaVuSans-49"/>
       <use x="63.623047" xlink:href="#DejaVuSans-57"/>
      </g>
     </g>
    </g>
    <g id="ytick_8">
     <g id="line2d_14">
      <g>
       <use style="stroke:#000000;stroke-width:0.8;" x="57.6" xlink:href="#mdeaff1e20f" y="69.440986"/>
      </g>
     </g>
     <g id="text_14">
      <!-- 20 -->
      <g transform="translate(37.875 73.240204)scale(0.1 -0.1)">
       <use xlink:href="#DejaVuSans-50"/>
       <use x="63.623047" xlink:href="#DejaVuSans-48"/>
      </g>
     </g>
    </g>
   </g>
   <g id="line2d_15">
    <path clip-path="url(#p55cb9dc217)" d="M 81.936569 82.213158 
L 86.981359 84.441664 
L 93.081483 86.469903 
L 100.128252 88.261694 
L 107.996969 89.785356 
L 116.547628 91.013834 
L 125.628506 91.925257 
L 135.078948 92.503504 
L 144.730643 92.73839 
L 154.412613 92.62554 
L 163.952951 92.167079 
L 173.18242 91.37113 
L 181.937233 90.251878 
L 190.061954 88.829068 
L 197.412517 87.12807 
L 203.858309 85.178939 
L 209.285075 83.01648 
L 213.596537 80.678872 
L 216.716023 78.207607 
L 218.588317 75.646674 
L 219.180246 73.041438 
L 218.481253 70.438077 
L 216.50375 67.882768 
L 213.282767 65.421063 
L 208.875492 63.096578 
L 203.360105 60.950366 
L 196.834392 59.02073 
L 189.414347 57.341727 
L 181.231396 55.943287 
L 172.430997 54.850216 
L 163.169281 54.081824 
L 153.610615 53.651919 
L 143.924585 53.568 
L 134.283214 53.831567 
L 124.857363 54.437932 
L 115.814184 55.37635 
L 107.314564 56.630322 
L 99.509064 58.177417 
L 92.536417 59.990141 
L 86.520275 62.036438 
L 81.567469 64.279941 
L 77.76581 66.680847 
L 75.182575 69.196602 
L 73.863814 71.782467 
L 73.832727 74.392639 
L 74.483814 76.544288 
L 76.336621 78.880333 
L 79.739137 83.69483 
L 80.82347 85.805362 
L 81.395215 87.279973 
L 82.856071 92.502692 
L 83.248718 94.506498 
L 83.407865 96.701013 
L 84.259393 94.145953 
L 86.000844 91.657879 
L 88.916524 89.18324 
L 93.012465 86.8202 
L 98.233454 84.621625 
L 104.491912 82.628816 
L 111.67776 80.877454 
L 119.664214 79.398906 
L 128.30941 78.219417 
L 137.460002 77.35992 
L 146.953478 76.835536 
L 156.621412 76.655701 
L 166.292363 76.823664 
L 175.794655 77.336238 
L 184.95963 78.184612 
L 193.624661 79.353478 
L 201.635938 80.822153 
L 208.851365 82.56458 
L 215.142766 84.54989 
L 220.39867 86.742905 
L 224.525582 89.104632 
L 227.450542 91.593144 
L 229.121467 94.164199 
L 229.508894 96.772372 
L 228.605748 99.371109 
L 226.428152 101.914483 
L 223.014848 104.35738 
L 218.426154 106.656371 
L 212.743617 108.770715 
L 206.068152 110.662796 
L 198.51796 112.299122 
L 190.227481 113.650635 
L 181.343332 114.693341 
L 172.023618 115.408746 
L 162.433285 115.784287 
L 152.742848 115.813094 
L 143.124096 115.494727 
L 133.747891 114.83481 
L 124.780574 113.845092 
L 116.38129 112.543068 
L 108.69921 110.951857 
L 101.870398 109.09983 
L 96.015955 107.019728 
L 91.24016 104.748481 
L 88.638945 103.243002 
L 90.333881 105.050227 
L 94.296659 108.628997 
L 98.34249 112.09398 
L 101.246919 114.377536 
L 106.047653 117.778346 
L 111.776125 121.508583 
L 117.65458 125.088352 
L 122.427243 127.803501 
L 128.683962 131.035286 
L 134.759958 133.953827 
L 140.496782 136.535006 
L 146.21029 138.743454 
L 152.634159 140.721141 
L 159.893317 142.456382 
L 167.923501 143.919308 
L 176.59932 145.082801 
L 185.771255 145.925801 
L 195.277491 146.433064 
L 204.949833 146.595591 
L 214.616376 146.410319 
L 224.105908 145.880686 
L 233.249656 145.016065 
L 241.88592 143.831765 
L 249.86089 142.348843 
L 257.033166 140.593482 
L 263.275501 138.597049 
L 268.477351 136.394787 
L 272.545801 134.025749 
L 275.409399 131.532113 
L 277.016758 128.958058 
L 277.339808 126.349323 
L 276.372631 123.752148 
L 274.132513 121.212711 
L 270.658891 118.776 
L 266.013708 116.485195 
L 260.278972 114.381098 
L 253.556761 112.500889 
L 245.96655 110.878124 
L 237.642547 109.541482 
L 228.73288 108.514772 
L 219.395535 107.815989 
L 209.79627 107.457756 
L 200.105484 107.446321 
L 190.494852 107.781872 
L 181.135119 108.458534 
L 172.192393 109.464249 
L 163.825356 110.781208 
L 156.182367 112.385977 
L 149.399373 114.250127 
L 143.596548 116.340539 
L 138.876895 118.62016 
L 135.324048 121.048622 
L 133.001224 123.582748 
L 131.949371 126.177549 
L 132.187627 128.786909 
L 133.400367 131.099022 
L 137.972241 136.266003 
L 140.740374 139.329949 
L 141.253077 140.24031 
L 142.131168 142.264487 
L 143.562213 146.138004 
L 143.963444 148.719745 
L 143.992907 150.182297 
L 145.024461 148.176991 
L 147.133156 145.741155 
L 150.40796 143.305319 
L 154.843307 140.988332 
L 160.378297 138.846431 
L 166.91967 136.920733 
L 174.353054 135.246041 
L 182.546793 133.852287 
L 191.355775 132.764153 
L 200.623407 132.001072 
L 210.185437 131.576478 
L 219.872047 131.497996 
L 229.511446 131.767061 
L 238.932541 132.378863 
L 247.96818 133.322467 
L 256.457941 134.581188 
L 264.251261 136.132657 
L 271.209757 137.949442 
L 277.209892 139.999114 
L 282.145298 142.245429 
L 285.928281 144.648459 
L 288.491797 147.165589 
L 289.790491 149.752204 
L 289.801046 152.362376 
L 288.52358 154.949741 
L 285.98048 157.468371 
L 282.217215 159.873651 
L 277.300137 162.122903 
L 271.316705 164.176073 
L 264.372941 165.996795 
L 256.592381 167.552826 
L 248.112827 168.816546 
L 239.084844 169.765461 
L 229.668621 170.382762 
L 220.031542 170.657513 
L 210.34412 170.584779 
L 200.778726 170.165935 
L 191.504831 169.408352 
L 182.687148 168.325467 
L 174.481926 166.936587 
L 167.035318 165.266269 
L 160.478982 163.344132 
L 154.929376 161.204356 
L 150.484982 158.88487 
L 147.92135 157.34946 
L 151.302987 161.556403 
L 155.245349 167.165224 
L 163.098872 179.029035 
L 167.840448 186.248561 
L 168.480631 187.443672 
L 169.432728 190.657773 
L 169.552436 191.608062 
L 169.73281 190.658835 
L 170.597677 188.374216 
L 172.525998 185.875081 
L 175.634116 183.413376 
L 179.916231 181.073707 
L 185.310866 178.905687 
L 191.726383 176.949495 
L 199.050151 175.240186 
L 207.152369 173.808128 
L 215.88955 172.678816 
L 225.106375 171.872244 
L 234.639406 171.402848 
L 244.319404 171.278938 
L 253.974811 171.502639 
L 263.434184 172.070075 
L 272.529562 172.971126 
L 281.099592 174.189731 
L 288.992089 175.704333 
L 296.06716 177.488063 
L 302.199067 179.509303 
L 307.27912 181.731999 
L 311.216959 184.116971 
L 313.943101 186.621729 
L 315.408945 189.201907 
L 315.588739 191.811642 
L 314.478888 194.40463 
L 312.099226 196.93482 
L 308.492208 199.357409 
L 303.721285 201.629375 
L 297.871597 203.710476 
L 291.046961 205.56366 
L 283.368246 207.156057 
L 274.971745 208.459425 
L 266.006748 209.45058 
L 256.632168 210.111996 
L 247.014112 210.431957 
L 237.323442 210.404713 
L 227.732413 210.030796 
L 218.410959 209.316891 
L 209.524491 208.275559 
L 201.230647 206.925327 
L 193.676743 205.290189 
L 186.996987 203.399045 
L 181.309693 201.285576 
L 174.832582 198.059071 
L 176.881307 200.567766 
L 178.770537 203.12823 
L 180.224665 205.529948 
L 183.480794 211.990612 
L 184.576958 214.476405 
L 187.398333 221.970902 
L 188.636361 225.405548 
L 188.78646 226.426541 
L 188.677887 227.966543 
L 190.249868 225.20603 
L 192.628486 222.749417 
L 196.181797 220.334608 
L 200.886022 218.054894 
L 206.670173 215.96092 
L 213.435302 214.09199 
L 221.0624 212.481722 
L 229.416561 211.158765 
L 238.349428 210.146645 
L 247.702317 209.463265 
L 257.309701 209.12081 
L 267.000719 209.12534 
L 276.603464 209.476731 
L 285.947769 210.168796 
L 294.867528 211.189227 
L 303.204522 212.519995 
L 310.81074 214.137387 
L 317.551279 216.012784 
L 323.30643 218.112819 
L 327.974117 220.400312 
L 331.471634 222.834617 
L 333.736923 225.372524 
L 334.729619 227.969074 
L 334.432204 230.57809 
L 332.8499 233.15327 
L 330.010894 235.64903 
L 325.965411 238.020942 
L 320.785369 240.226954 
L 314.562637 242.227948 
L 307.407528 243.988402 
L 299.447173 245.477073 
L 290.822741 246.667528 
L 281.687461 247.538679 
L 272.203264 248.07506 
L 262.538462 248.267111 
L 252.864727 248.111489 
L 243.35362 247.610975 
L 234.173913 246.774317 
L 225.488466 245.616448 
L 217.451438 244.157896 
L 210.205504 242.424592 
L 203.87942 240.447218 
L 198.585354 238.26092 
L 197.630009 238.090427 
L 201.123815 240.478211 
L 205.90831 243.410468 
L 210.892434 246.235873 
L 216.242294 248.928621 
L 221.193824 251.074677 
L 226.89898 253.227107 
L 233.199777 255.224415 
L 240.28726 257.01005 
L 248.151106 258.537619 
L 256.687962 259.773907 
L 265.756428 260.694797 
L 275.198054 261.283198 
L 284.846153 261.528456 
L 294.529747 261.426198 
L 304.076929 260.978172 
L 313.318346 260.192346 
L 322.089978 259.082654 
L 330.236158 257.668748 
L 337.61224 255.975717 
L 344.087379 254.033647 
L 349.546508 251.876999 
L 353.893001 249.544047 
L 357.049606 247.076187 
L 358.960527 244.51716 
L 359.591662 241.912456 
L 358.93176 239.308282 
L 356.992768 236.750817 
L 353.80902 234.285488 
L 349.43666 231.956004 
L 343.95352 229.803699 
L 337.457037 227.866878 
L 330.06228 226.179814 
L 321.900672 224.772469 
L 313.116745 223.669807 
L 303.866628 222.891417 
L 294.314574 222.451077 
L 284.629936 222.356598 
L 274.984621 222.609698 
L 265.549839 223.205847 
L 256.492856 224.134454 
L 247.974444 225.379085 
L 240.145861 226.917651 
L 233.146071 228.722907 
L 227.099306 230.762674 
L 222.112861 233.000835 
L 218.275243 235.397648 
L 215.654309 237.910592 
L 214.29669 240.495051 
L 214.226744 243.105223 
L 215.427885 245.810999 
L 217.83179 248.973642 
L 221.47639 253.440247 
L 222.682403 255.192172 
L 222.647372 255.054046 
L 223.083053 256.000743 
L 223.721613 260.266298 
L 224.085957 258.544055 
L 225.311108 256.121966 
L 227.667571 253.620988 
L 231.212994 251.197244 
L 235.914784 248.915749 
L 241.698238 246.821431 
L 248.463252 244.952439 
L 256.090349 243.342139 
L 264.444395 242.019213 
L 273.377262 241.007125 
L 282.730151 240.323776 
L 292.337535 239.981352 
L 302.028553 239.985882 
L 311.631297 240.337336 
L 320.975486 241.029432 
L 329.895245 242.049863 
L 338.232124 243.380631 
L 345.838458 244.998054 
L 352.578996 246.873451 
L 358.334147 248.97358 
L 363.001718 251.261042 
L 366.499119 253.695378 
L 368.764177 256.233316 
L 369.75664 258.829866 
L 369.45911 261.438882 
L 367.87669 264.014062 
L 365.037567 266.509791 
L 360.991968 268.881672 
L 355.811926 271.087684 
L 349.589079 273.088678 
L 342.43397 274.849101 
L 334.473499 276.337771 
L 325.849066 277.528164 
L 316.713554 278.399315 
L 307.229242 278.935665 
L 297.564439 279.127716 
L 287.890705 278.972063 
L 278.379713 278.471486 
L 269.200123 277.634828 
L 260.514792 276.476959 
L 252.47788 275.018376 
L 245.232178 273.285041 
L 238.906094 271.307666 
L 231.675355 268.318109 
L 233.149435 269.545931 
L 236.191783 271.774188 
L 239.182977 273.816205 
L 243.479708 276.4345 
L 248.5905 279.351292 
L 255.007757 282.607071 
L 259.154273 284.532894 
L 264.490794 286.683793 
L 270.522711 288.726341 
L 277.381798 290.572588 
L 285.051698 292.169516 
L 293.430567 293.481632 
L 302.380021 294.48341 
L 311.743698 295.15623 
L 321.356186 295.488 
L 331.046972 295.472722 
L 340.644264 295.110615 
L 349.977898 294.408177 
L 358.881765 293.377842 
L 367.198228 292.037858 
L 374.779739 290.411999 
L 381.491627 288.529103 
L 387.214647 286.422663 
L 391.847419 284.130046 
L 395.307701 281.691898 
L 397.534132 279.15143 
L 398.487273 276.553848 
L 398.149956 273.945176 
L 396.528445 271.371777 
L 393.651392 268.879235 
L 389.569834 266.511822 
L 384.356153 264.311528 
L 378.10303 262.317375 
L 370.921126 260.564857 
L 362.93792 259.084966 
L 354.295392 257.904071 
L 345.146889 257.043074 
L 335.654456 256.517191 
L 325.98687 256.335856 
L 316.315571 256.502194 
L 306.812236 257.0133 
L 297.645289 257.860112 
L 288.977589 259.027541 
L 280.963181 260.494998 
L 273.74381 262.236331 
L 267.447884 264.220673 
L 262.187341 266.412844 
L 258.055209 268.773883 
L 255.124797 271.261895 
L 253.448188 273.832763 
L 253.055077 276.440842 
L 253.536229 278.462113 
L 254.487514 279.92079 
L 258.182225 284.417764 
L 262.168782 290.435181 
L 262.168782 290.435181 
" style="fill:none;stroke:#1f77b4;stroke-linecap:square;stroke-width:1.5;"/>
   </g>
   <g id="patch_3">
    <path d="M 57.6 307.584 
L 57.6 41.472 
" style="fill:none;stroke:#000000;stroke-linecap:square;stroke-linejoin:miter;stroke-width:0.8;"/>
   </g>
   <g id="patch_4">
    <path d="M 414.72 307.584 
L 414.72 41.472 
" style="fill:none;stroke:#000000;stroke-linecap:square;stroke-linejoin:miter;stroke-width:0.8;"/>
   </g>
   <g id="patch_5">
    <path d="M 57.6 307.584 
L 414.72 307.584 
" style="fill:none;stroke:#000000;stroke-linecap:square;stroke-linejoin:miter;stroke-width:0.8;"/>
   </g>
   <g id="patch_6">
    <path d="M 57.6 41.472 
L 414.72 41.472 
" style="fill:none;stroke:#000000;stroke-linecap:square;stroke-linejoin:miter;stroke-width:0.8;"/>
   </g>
   <g id="text_15">
    <!-- Robot GPS Path -->
    <defs>
     <path d="M 44.390625 34.1875 
Q 47.5625 33.109375 50.5625 29.59375 
Q 53.5625 26.078125 56.59375 19.921875 
L 66.609375 0 
L 56 0 
L 46.6875 18.703125 
Q 43.0625 26.03125 39.671875 28.421875 
Q 36.28125 30.8125 30.421875 30.8125 
L 19.671875 30.8125 
L 19.671875 0 
L 9.8125 0 
L 9.8125 72.90625 
L 32.078125 72.90625 
Q 44.578125 72.90625 50.734375 67.671875 
Q 56.890625 62.453125 56.890625 51.90625 
Q 56.890625 45.015625 53.6875 40.46875 
Q 50.484375 35.9375 44.390625 34.1875 
z
M 19.671875 64.796875 
L 19.671875 38.921875 
L 32.078125 38.921875 
Q 39.203125 38.921875 42.84375 42.21875 
Q 46.484375 45.515625 46.484375 51.90625 
Q 46.484375 58.296875 42.84375 61.546875 
Q 39.203125 64.796875 32.078125 64.796875 
z
" id="DejaVuSans-82"/>
     <path d="M 30.609375 48.390625 
Q 23.390625 48.390625 19.1875 42.75 
Q 14.984375 37.109375 14.984375 27.296875 
Q 14.984375 17.484375 19.15625 11.84375 
Q 23.34375 6.203125 30.609375 6.203125 
Q 37.796875 6.203125 41.984375 11.859375 
Q 46.1875 17.53125 46.1875 27.296875 
Q 46.1875 37.015625 41.984375 42.703125 
Q 37.796875 48.390625 30.609375 48.390625 
z
M 30.609375 56 
Q 42.328125 56 49.015625 48.375 
Q 55.71875 40.765625 55.71875 27.296875 
Q 55.71875 13.875 49.015625 6.21875 
Q 42.328125 -1.421875 30.609375 -1.421875 
Q 18.84375 -1.421875 12.171875 6.21875 
Q 5.515625 13.875 5.515625 27.296875 
Q 5.515625 40.765625 12.171875 48.375 
Q 18.84375 56 30.609375 56 
z
" id="DejaVuSans-111"/>
     <path d="M 48.6875 27.296875 
Q 48.6875 37.203125 44.609375 42.84375 
Q 40.53125 48.484375 33.40625 48.484375 
Q 26.265625 48.484375 22.1875 42.84375 
Q 18.109375 37.203125 18.109375 27.296875 
Q 18.109375 17.390625 22.1875 11.75 
Q 26.265625 6.109375 33.40625 6.109375 
Q 40.53125 6.109375 44.609375 11.75 
Q 48.6875 17.390625 48.6875 27.296875 
z
M 18.109375 46.390625 
Q 20.953125 51.265625 25.265625 53.625 
Q 29.59375 56 35.59375 56 
Q 45.5625 56 51.78125 48.09375 
Q 58.015625 40.1875 58.015625 27.296875 
Q 58.015625 14.40625 51.78125 6.484375 
Q 45.5625 -1.421875 35.59375 -1.421875 
Q 29.59375 -1.421875 25.265625 0.953125 
Q 20.953125 3.328125 18.109375 8.203125 
L 18.109375 0 
L 9.078125 0 
L 9.078125 75.984375 
L 18.109375 75.984375 
z
" id="DejaVuSans-98"/>
     <path d="M 18.3125 70.21875 
L 18.3125 54.6875 
L 36.8125 54.6875 
L 36.8125 47.703125 
L 18.3125 47.703125 
L 18.3125 18.015625 
Q 18.3125 11.328125 20.140625 9.421875 
Q 21.96875 7.515625 27.59375 7.515625 
L 36.8125 7.515625 
L 36.8125 0 
L 27.59375 0 
Q 17.1875 0 13.234375 3.875 
Q 9.28125 7.765625 9.28125 18.015625 
L 9.28125 47.703125 
L 2.6875 47.703125 
L 2.6875 54.6875 
L 9.28125 54.6875 
L 9.28125 70.21875 
z
" id="DejaVuSans-116"/>
     <path id="DejaVuSans-32"/>
     <path d="M 59.515625 10.40625 
L 59.515625 29.984375 
L 43.40625 29.984375 
L 43.40625 38.09375 
L 69.28125 38.09375 
L 69.28125 6.78125 
Q 63.578125 2.734375 56.6875 0.65625 
Q 49.8125 -1.421875 42 -1.421875 
Q 24.90625 -1.421875 15.25 8.5625 
Q 5.609375 18.5625 5.609375 36.375 
Q 5.609375 54.25 15.25 64.234375 
Q 24.90625 74.21875 42 74.21875 
Q 49.125 74.21875 55.546875 72.453125 
Q 61.96875 70.703125 67.390625 67.28125 
L 67.390625 56.78125 
Q 61.921875 61.421875 55.765625 63.765625 
Q 49.609375 66.109375 42.828125 66.109375 
Q 29.4375 66.109375 22.71875 58.640625 
Q 16.015625 51.171875 16.015625 36.375 
Q 16.015625 21.625 22.71875 14.15625 
Q 29.4375 6.6875 42.828125 6.6875 
Q 48.046875 6.6875 52.140625 7.59375 
Q 56.25 8.5 59.515625 10.40625 
z
" id="DejaVuSans-71"/>
     <path d="M 19.671875 64.796875 
L 19.671875 37.40625 
L 32.078125 37.40625 
Q 38.96875 37.40625 42.71875 40.96875 
Q 46.484375 44.53125 46.484375 51.125 
Q 46.484375 57.671875 42.71875 61.234375 
Q 38.96875 64.796875 32.078125 64.796875 
z
M 9.8125 72.90625 
L 32.078125 72.90625 
Q 44.34375 72.90625 50.609375 67.359375 
Q 56.890625 61.8125 56.890625 51.125 
Q 56.890625 40.328125 50.609375 34.8125 
Q 44.34375 29.296875 32.078125 29.296875 
L 19.671875 29.296875 
L 19.671875 0 
L 9.8125 0 
z
" id="DejaVuSans-80"/>
     <path d="M 53.515625 70.515625 
L 53.515625 60.890625 
Q 47.90625 63.578125 42.921875 64.890625 
Q 37.9375 66.21875 33.296875 66.21875 
Q 25.25 66.21875 20.875 63.09375 
Q 16.5 59.96875 16.5 54.203125 
Q 16.5 49.359375 19.40625 46.890625 
Q 22.3125 44.4375 30.421875 42.921875 
L 36.375 41.703125 
Q 47.40625 39.59375 52.65625 34.296875 
Q 57.90625 29 57.90625 20.125 
Q 57.90625 9.515625 50.796875 4.046875 
Q 43.703125 -1.421875 29.984375 -1.421875 
Q 24.8125 -1.421875 18.96875 -0.25 
Q 13.140625 0.921875 6.890625 3.21875 
L 6.890625 13.375 
Q 12.890625 10.015625 18.65625 8.296875 
Q 24.421875 6.59375 29.984375 6.59375 
Q 38.421875 6.59375 43.015625 9.90625 
Q 47.609375 13.234375 47.609375 19.390625 
Q 47.609375 24.75 44.3125 27.78125 
Q 41.015625 30.8125 33.5 32.328125 
L 27.484375 33.5 
Q 16.453125 35.6875 11.515625 40.375 
Q 6.59375 45.0625 6.59375 53.421875 
Q 6.59375 63.09375 13.40625 68.65625 
Q 20.21875 74.21875 32.171875 74.21875 
Q 37.3125 74.21875 42.625 73.28125 
Q 47.953125 72.359375 53.515625 70.515625 
z
" id="DejaVuSans-83"/>
     <path d="M 34.28125 27.484375 
Q 23.390625 27.484375 19.1875 25 
Q 14.984375 22.515625 14.984375 16.5 
Q 14.984375 11.71875 18.140625 8.90625 
Q 21.296875 6.109375 26.703125 6.109375 
Q 34.1875 6.109375 38.703125 11.40625 
Q 43.21875 16.703125 43.21875 25.484375 
L 43.21875 27.484375 
z
M 52.203125 31.203125 
L 52.203125 0 
L 43.21875 0 
L 43.21875 8.296875 
Q 40.140625 3.328125 35.546875 0.953125 
Q 30.953125 -1.421875 24.3125 -1.421875 
Q 15.921875 -1.421875 10.953125 3.296875 
Q 6 8.015625 6 15.921875 
Q 6 25.140625 12.171875 29.828125 
Q 18.359375 34.515625 30.609375 34.515625 
L 43.21875 34.515625 
L 43.21875 35.40625 
Q 43.21875 41.609375 39.140625 45 
Q 35.0625 48.390625 27.6875 48.390625 
Q 23 48.390625 18.546875 47.265625 
Q 14.109375 46.140625 10.015625 43.890625 
L 10.015625 52.203125 
Q 14.9375 54.109375 19.578125 55.046875 
Q 24.21875 56 28.609375 56 
Q 40.484375 56 46.34375 49.84375 
Q 52.203125 43.703125 52.203125 31.203125 
z
" id="DejaVuSans-97"/>
     <path d="M 54.890625 33.015625 
L 54.890625 0 
L 45.90625 0 
L 45.90625 32.71875 
Q 45.90625 40.484375 42.875 44.328125 
Q 39.84375 48.1875 33.796875 48.1875 
Q 26.515625 48.1875 22.3125 43.546875 
Q 18.109375 38.921875 18.109375 30.90625 
L 18.109375 0 
L 9.078125 0 
L 9.078125 75.984375 
L 18.109375 75.984375 
L 18.109375 46.1875 
Q 21.34375 51.125 25.703125 53.5625 
Q 30.078125 56 35.796875 56 
Q 45.21875 56 50.046875 50.171875 
Q 54.890625 44.34375 54.890625 33.015625 
z
" id="DejaVuSans-104"/>
    </defs>
    <g transform="translate(189.155625 35.472)scale(0.12 -0.12)">
     <use xlink:href="#DejaVuSans-82"/>
     <use x="69.419922" xlink:href="#DejaVuSans-111"/>
     <use x="130.601562" xlink:href="#DejaVuSans-98"/>
     <use x="194.078125" xlink:href="#DejaVuSans-111"/>
     <use x="255.259766" xlink:href="#DejaVuSans-116"/>
     <use x="294.46875" xlink:href="#DejaVuSans-32"/>
     <use x="326.255859" xlink:href="#DejaVuSans-71"/>
     <use x="403.746094" xlink:href="#DejaVuSans-80"/>
     <use x="464.048828" xlink:href="#DejaVuSans-83"/>
     <use x="527.525391" xlink:href="#DejaVuSans-32"/>
     <use x="559.3125" xlink:href="#DejaVuSans-80"/>
     <use x="619.552734" xlink:href="#DejaVuSans-97"/>
     <use x="680.832031" xlink:href="#DejaVuSans-116"/>
     <use x="720.041016" xlink:href="#DejaVuSans-104"/>
    </g>
   </g>
  </g>
 </g>
 <defs>
  <clipPath id="p55cb9dc217">
   <rect height="266.112" width="357.12" x="57.6" y="41.472"/>
  </clipPath>
 </defs>
</svg>
