<?xml version="1.0" encoding="utf-8" standalone="no"?>
<!DOCTYPE svg PUBLIC "-//W3C//DTD SVG 1.1//EN"
  "http://www.w3.org/Graphics/SVG/1.1/DTD/svg11.dtd">
<!-- Created with matplotlib (https://matplotlib.org/) -->
<svg height="345.6pt" version="1.1" viewBox="0 0 460.8 345.6" width="460.8pt" xmlns="http://www.w3.org/2000/svg" xmlns:xlink="http://www.w3.org/1999/xlink">
 <defs>
  <style type="text/css">
*{stroke-linecap:butt;stroke-linejoin:round;}
  </style>
 </defs>
 <g id="figure_1">
  <g id="patch_1">
   <path d="M 0 345.6 
L 460.8 345.6 
L 460.8 0 
L 0 0 
z
" style="fill:#ffffff;"/>
  </g>
  <g id="axes_1">
   <g id="patch_2">
    <path d="M 57.6 307.584 
L 414.72 307.584 
L 414.72 41.472 
L 57.6 41.472 
z
" style="fill:#ffffff;"/>
   </g>
   <g id="matplotlib.axis_1">
    <g id="xtick_1">
     <g id="line2d_1">
      <defs>
       <path d="M 0 0 
L 0 3.5 
" id="mcc3c7501e0" style="stroke:#000000;stroke-width:0.8;"/>
      </defs>
      <g>
       <use style="stroke:#000000;stroke-width:0.8;" x="136.015166" xlink:href="#mcc3c7501e0" y="307.584"/>
      </g>
     </g>
     <g id="text_1">
      <!-- −5 -->
      <defs>
       <path d="M 10.59375 35.5 
L 73.1875 35.5 
L 73.1875 27.203125 
L 10.59375 27.203125 
z
" id="DejaVuSans-8722"/>
       <path d="M 10.796875 72.90625 
L 49.515625 72.90625 
L 49.515625 64.59375 
L 19.828125 64.59375 
L 19.828125 46.734375 
Q 21.96875 47.46875 24.109375 47.828125 
Q 26.265625 48.1875 28.421875 48.1875 
Q 40.625 48.1875 47.75 41.5 
Q 54.890625 34.8125 54.890625 23.390625 
Q 54.890625 11.625 47.5625 5.09375 
Q 40.234375 -1.421875 26.90625 -1.421875 
Q 22.3125 -1.421875 17.546875 -0.640625 
Q 12.796875 0.140625 7.71875 1.703125 
L 7.71875 11.625 
Q 12.109375 9.234375 16.796875 8.0625 
Q 21.484375 6.890625 26.703125 6.890625 
Q 35.15625 6.890625 40.078125 11.328125 
Q 45.015625 15.765625 45.015625 23.390625 
Q 45.015625 31 40.078125 35.4375 
Q 35.15625 39.890625 26.703125 39.890625 
Q 22.75 39.890625 18.8125 39.015625 
Q 14.890625 38.140625 10.796875 36.28125 
z
" id="DejaVuSans-53"/>
      </defs>
      <g transform="translate(128.644072 322.182437)scale(0.1 -0.1)">
       <use xlink:href="#DejaVuSans-8722"/>
       <use x="83.789062" xlink:href="#DejaVuSans-53"/>
      </g>
     </g>
    </g>
    <g id="xtick_2">
     <g id="line2d_2">
      <g>
       <use style="stroke:#000000;stroke-width:0.8;" x="215.075494" xlink:href="#mcc3c7501e0" y="307.584"/>
      </g>
     </g>
     <g id="text_2">
      <!-- 0 -->
      <defs>
       <path d="M 31.78125 66.40625 
Q 24.171875 66.40625 20.328125 58.90625 
Q 16.5 51.421875 16.5 36.375 
Q 16.5 21.390625 20.328125 13.890625 
Q 24.171875 6.390625 31.78125 6.390625 
Q 39.453125 6.390625 43.28125 13.890625 
Q 47.125 21.390625 47.125 36.375 
Q 47.125 51.421875 43.28125 58.90625 
Q 39.453125 66.40625 31.78125 66.40625 
z
M 31.78125 74.21875 
Q 44.046875 74.21875 50.515625 64.515625 
Q 56.984375 54.828125 56.984375 36.375 
Q 56.984375 17.96875 50.515625 8.265625 
Q 44.046875 -1.421875 31.78125 -1.421875 
Q 19.53125 -1.421875 13.0625 8.265625 
Q 6.59375 17.96875 6.59375 36.375 
Q 6.59375 54.828125 13.0625 64.515625 
Q 19.53125 74.21875 31.78125 74.21875 
z
" id="DejaVuSans-48"/>
      </defs>
      <g transform="translate(211.894244 322.182437)scale(0.1 -0.1)">
       <use xlink:href="#DejaVuSans-48"/>
      </g>
     </g>
    </g>
    <g id="xtick_3">
     <g id="line2d_3">
      <g>
       <use style="stroke:#000000;stroke-width:0.8;" x="294.135822" xlink:href="#mcc3c7501e0" y="307.584"/>
      </g>
     </g>
     <g id="text_3">
      <!-- 5 -->
      <g transform="translate(290.954572 322.182437)scale(0.1 -0.1)">
       <use xlink:href="#DejaVuSans-53"/>
      </g>
     </g>
    </g>
    <g id="xtick_4">
     <g id="line2d_4">
      <g>
       <use style="stroke:#000000;stroke-width:0.8;" x="373.19615" xlink:href="#mcc3c7501e0" y="307.584"/>
      </g>
     </g>
     <g id="text_4">
      <!-- 10 -->
      <defs>
       <path d="M 12.40625 8.296875 
L 28.515625 8.296875 
L 28.515625 63.921875 
L 10.984375 60.40625 
L 10.984375 69.390625 
L 28.421875 72.90625 
L 38.28125 72.90625 
L 38.28125 8.296875 
L 54.390625 8.296875 
L 54.390625 0 
L 12.40625 0 
z
" id="DejaVuSans-49"/>
      </defs>
      <g transform="translate(366.83365 322.182437)scale(0.1 -0.1)">
       <use xlink:href="#DejaVuSans-49"/>
       <use x="63.623047" xlink:href="#DejaVuSans-48"/>
      </g>
     </g>
    </g>
   </g>
   <g id="matplotlib.axis_2">
    <g id="ytick_1">
     <g id="line2d_5">
      <defs>
       <path d="M 0 0 
L -3.5 0 
" id="m48bdcd5a89" style="stroke:#000000;stroke-width:0.8;"/>
      </defs>
      <g>
       <use style="stroke:#000000;stroke-width:0.8;" x="57.6" xlink:href="#m48bdcd5a89" y="282.453037"/>
      </g>
     </g>
     <g id="text_5">
      <!-- −30 -->
      <defs>
       <path d="M 40.578125 39.3125 
Q 47.65625 37.796875 51.625 33 
Q 55.609375 28.21875 55.609375 21.1875 
Q 55.609375 10.40625 48.1875 4.484375 
Q 40.765625 -1.421875 27.09375 -1.421875 
Q 22.515625 -1.421875 17.65625 -0.515625 
Q 12.796875 0.390625 7.625 2.203125 
L 7.625 11.71875 
Q 11.71875 9.328125 16.59375 8.109375 
Q 21.484375 6.890625 26.8125 6.890625 
Q 36.078125 6.890625 40.9375 10.546875 
Q 45.796875 14.203125 45.796875 21.1875 
Q 45.796875 27.640625 41.28125 31.265625 
Q 36.765625 34.90625 28.71875 34.90625 
L 20.21875 34.90625 
L 20.21875 43.015625 
L 29.109375 43.015625 
Q 36.375 43.015625 40.234375 45.921875 
Q 44.09375 48.828125 44.09375 54.296875 
Q 44.09375 59.90625 40.109375 62.90625 
Q 36.140625 65.921875 28.71875 65.921875 
Q 24.65625 65.921875 20.015625 65.03125 
Q 15.375 64.15625 9.8125 62.3125 
L 9.8125 71.09375 
Q 15.4375 72.65625 20.34375 73.4375 
Q 25.25 74.21875 29.59375 74.21875 
Q 40.828125 74.21875 47.359375 69.109375 
Q 53.90625 64.015625 53.90625 55.328125 
Q 53.90625 49.265625 50.4375 45.09375 
Q 46.96875 40.921875 40.578125 39.3125 
z
" id="DejaVuSans-51"/>
      </defs>
      <g transform="translate(29.495313 286.252256)scale(0.1 -0.1)">
       <use xlink:href="#DejaVuSans-8722"/>
       <use x="83.789062" xlink:href="#DejaVuSans-51"/>
       <use x="147.412109" xlink:href="#DejaVuSans-48"/>
      </g>
     </g>
    </g>
    <g id="ytick_2">
     <g id="line2d_6">
      <g>
       <use style="stroke:#000000;stroke-width:0.8;" x="57.6" xlink:href="#m48bdcd5a89" y="227.582818"/>
      </g>
     </g>
     <g id="text_6">
      <!-- −20 -->
      <defs>
       <path d="M 19.1875 8.296875 
L 53.609375 8.296875 
L 53.609375 0 
L 7.328125 0 
L 7.328125 8.296875 
Q 12.9375 14.109375 22.625 23.890625 
Q 32.328125 33.6875 34.8125 36.53125 
Q 39.546875 41.84375 41.421875 45.53125 
Q 43.3125 49.21875 43.3125 52.78125 
Q 43.3125 58.59375 39.234375 62.25 
Q 35.15625 65.921875 28.609375 65.921875 
Q 23.96875 65.921875 18.8125 64.3125 
Q 13.671875 62.703125 7.8125 59.421875 
L 7.8125 69.390625 
Q 13.765625 71.78125 18.9375 73 
Q 24.125 74.21875 28.421875 74.21875 
Q 39.75 74.21875 46.484375 68.546875 
Q 53.21875 62.890625 53.21875 53.421875 
Q 53.21875 48.921875 51.53125 44.890625 
Q 49.859375 40.875 45.40625 35.40625 
Q 44.1875 33.984375 37.640625 27.21875 
Q 31.109375 20.453125 19.1875 8.296875 
z
" id="DejaVuSans-50"/>
      </defs>
      <g transform="translate(29.495313 231.382037)scale(0.1 -0.1)">
       <use xlink:href="#DejaVuSans-8722"/>
       <use x="83.789062" xlink:href="#DejaVuSans-50"/>
       <use x="147.412109" xlink:href="#DejaVuSans-48"/>
      </g>
     </g>
    </g>
    <g id="ytick_3">
     <g id="line2d_7">
      <g>
       <use style="stroke:#000000;stroke-width:0.8;" x="57.6" xlink:href="#m48bdcd5a89" y="172.7126"/>
      </g>
     </g>
     <g id="text_7">
      <!-- −10 -->
      <g transform="translate(29.495313 176.511819)scale(0.1 -0.1)">
       <use xlink:href="#DejaVuSans-8722"/>
       <use x="83.789062" xlink:href="#DejaVuSans-49"/>
       <use x="147.412109" xlink:href="#DejaVuSans-48"/>
      </g>
     </g>
    </g>
    <g id="ytick_4">
     <g id="line2d_8">
      <g>
       <use style="stroke:#000000;stroke-width:0.8;" x="57.6" xlink:href="#m48bdcd5a89" y="117.842381"/>
      </g>
     </g>
     <g id="text_8">
      <!-- 0 -->
      <g transform="translate(44.2375 121.6416)scale(0.1 -0.1)">
       <use xlink:href="#DejaVuSans-48"/>
      </g>
     </g>
    </g>
    <g id="ytick_5">
     <g id="line2d_9">
      <g>
       <use style="stroke:#000000;stroke-width:0.8;" x="57.6" xlink:href="#m48bdcd5a89" y="62.972163"/>
      </g>
     </g>
     <g id="text_9">
      <!-- 10 -->
      <g transform="translate(37.875 66.771382)scale(0.1 -0.1)">
       <use xlink:href="#DejaVuSans-49"/>
       <use x="63.623047" xlink:href="#DejaVuSans-48"/>
      </g>
     </g>
    </g>
   </g>
   <g id="line2d_10">
    <path clip-path="url(#p1ec4cdc35c)" d="M 173.797243 54.42103 
L 172.854718 53.66452 
L 172.736366 53.568 
L 173.764717 56.094887 
L 179.827865 72.787113 
L 179.604416 72.742571 
L 179.395821 72.412416 
L 179.416717 72.503797 
L 179.290373 72.840054 
L 178.547071 72.160555 
L 178.406828 70.541077 
L 179.828076 69.12939 
L 181.086315 68.510613 
L 180.112775 68.358819 
L 177.149362 68.338908 
L 173.309069 68.429692 
L 169.050756 68.744552 
L 165.218877 69.291801 
L 162.445422 69.956094 
L 160.612245 70.639303 
L 158.903074 71.705231 
L 157.736535 72.65398 
L 156.361927 73.290266 
L 154.180951 73.939801 
L 149.801511 74.943576 
L 145.021336 75.859432 
L 132.731909 77.954132 
L 128.41978 78.86712 
L 124.299592 79.919599 
L 120.418942 81.123674 
L 117.161335 82.345964 
L 110.669832 85.174684 
L 105.526888 87.272405 
L 96.533604 90.831299 
L 93.436677 92.318514 
L 90.999699 93.755795 
L 88.874408 95.238408 
L 87.047459 96.725742 
L 84.784696 98.863055 
L 80.616313 102.911775 
L 78.288044 105.150095 
L 76.860959 106.78004 
L 75.761539 108.436439 
L 75.00839 110.099139 
L 74.588168 111.756712 
L 74.447038 113.296356 
L 74.322798 116.5298 
L 74.049782 119.661094 
L 74.18577 122.043829 
L 74.568715 123.748312 
L 75.23858 125.347996 
L 76.54735 127.627564 
L 78.185669 129.9189 
L 81.764848 134.176351 
L 83.871296 136.465224 
L 85.585481 138.02627 
L 87.607484 139.572663 
L 89.879333 141.037371 
L 93.358708 142.96657 
L 99.397476 146.069302 
L 105.922538 149.241489 
L 110.229781 151.067768 
L 116.299862 153.342734 
L 121.258821 155.027646 
L 126.768545 156.652654 
L 132.532187 158.069449 
L 140.205475 159.643179 
L 153.581991 162.079009 
L 163.83172 163.755263 
L 170.486518 164.629256 
L 177.358587 165.30393 
L 186.140665 165.898056 
L 205.594208 166.914753 
L 212.844957 167.065192 
L 220.101006 166.962377 
L 243.03945 166.041692 
L 249.881051 165.477074 
L 258.554648 164.49932 
L 272.743052 162.566688 
L 279.213473 161.512773 
L 285.169952 160.337395 
L 292.676769 158.624835 
L 299.849189 156.758721 
L 308.477683 154.26597 
L 314.919611 152.108973 
L 320.965075 149.867725 
L 325.525602 148.010162 
L 329.65287 146.045471 
L 333.325233 144.00373 
L 337.53234 141.330745 
L 342.400972 137.922396 
L 345.142346 135.78359 
L 347.683539 133.494794 
L 349.078127 131.958372 
L 350.271267 130.406739 
L 351.287433 128.76588 
L 351.983385 127.213962 
L 354.687738 119.657709 
L 354.832623 117.97628 
L 354.658393 116.344509 
L 354.090377 114.134606 
L 353.33854 111.790583 
L 352.296904 109.527902 
L 350.644139 106.495759 
L 349.127648 104.257304 
L 347.279844 101.956382 
L 345.79128 100.403859 
L 344.016627 98.838063 
L 341.980675 97.32975 
L 338.783114 95.303353 
L 327.612462 88.765644 
L 324.796234 87.400937 
L 320.24949 85.533119 
L 313.978752 83.311327 
L 307.41799 81.25648 
L 297.224599 78.309101 
L 291.660889 76.899256 
L 285.812975 75.589368 
L 279.602925 74.411753 
L 271.446123 73.15091 
L 256.85269 71.195663 
L 246.152692 70.13209 
L 237.289793 69.46685 
L 230.161253 69.113896 
L 223.171204 68.984357 
L 207.062153 69.016172 
L 195.747252 69.230096 
L 188.581087 69.572883 
L 181.906002 70.101514 
L 171.431385 71.175652 
L 162.846037 72.210612 
L 152.464765 73.711048 
L 146.095008 74.848153 
L 140.120124 76.124145 
L 133.049854 77.899527 
L 124.280621 80.292362 
L 112.582139 83.848802 
L 107.719652 85.628781 
L 103.282122 87.527574 
L 99.451423 89.414554 
L 94.670554 91.999751 
L 91.221308 94.052125 
L 88.082731 96.192079 
L 85.422606 98.281327 
L 82.8958 100.449966 
L 80.658852 102.658094 
L 77.353202 106.325785 
L 76.198032 107.891584 
L 75.239409 109.529221 
L 74.580236 111.128852 
L 74.148674 112.786277 
L 73.981698 114.345082 
L 73.876729 119.93429 
L 74.120083 122.308805 
L 74.538722 123.970473 
L 75.236484 125.605393 
L 76.186556 127.200056 
L 77.921611 129.454633 
L 80.733949 132.85941 
L 83.196592 135.870785 
L 84.678943 137.400734 
L 86.455617 138.973936 
L 88.531801 140.509575 
L 90.91122 141.986843 
L 94.625504 143.945384 
L 99.736442 146.355574 
L 107.743696 149.951982 
L 113.574767 152.33573 
L 118.334012 154.061974 
L 123.626568 155.744243 
L 129.240025 157.232685 
L 136.66701 158.897605 
L 144.490241 160.478736 
L 157.885076 162.868691 
L 166.479717 164.20918 
L 173.42655 165.018804 
L 182.29746 165.715294 
L 194.807239 166.377142 
L 206.197383 166.934083 
L 213.340278 167.045626 
L 216.446869 166.949499 
L 218.81935 166.644257 
L 220.864324 166.135459 
L 222.450498 165.45776 
L 223.196243 164.93533 
L 223.664018 164.37538 
L 224.365134 164.38335 
L 221.568514 164.489576 
L 217.553119 164.527933 
L 213.420897 164.634578 
L 211.081506 164.95601 
L 209.068511 165.479738 
L 207.524346 166.169033 
L 206.810884 166.696847 
L 206.377636 167.260141 
L 206.258656 167.629485 
L 206.183382 168.942528 
L 206.405138 172.58596 
L 208.915148 206.900961 
L 208.906702 206.341571 
L 209.291718 205.361404 
L 210.095691 204.442974 
L 206.388415 205.205811 
L 203.696397 205.938288 
L 201.568412 206.721444 
L 200.04793 207.526975 
L 199.103966 208.292277 
L 198.599023 208.975611 
L 198.329342 209.965873 
L 198.312943 211.057713 
L 197.67839 211.483928 
L 194.711132 213.170867 
L 193.204399 214.343084 
L 192.605878 215.004054 
L 192.189531 215.671533 
L 191.961607 216.341534 
L 191.919562 217.026951 
L 192.061214 217.699244 
L 192.349883 218.306693 
L 193.191625 219.332715 
L 195.18393 221.010779 
L 195.173537 220.961434 
L 195.130247 221.030434 
L 194.433933 221.827896 
L 193.038631 223.358343 
L 192.636454 223.994781 
L 192.367577 224.652747 
L 192.260465 225.326777 
L 192.333871 226.02131 
L 192.601173 226.715989 
L 193.029876 227.358717 
L 194.157685 228.415676 
L 196.698103 230.112882 
L 196.701568 230.100512 
L 196.660615 229.991554 
L 196.614521 230.061255 
L 195.853146 230.923197 
L 194.870639 232.007952 
L 194.430273 232.659816 
L 194.112727 233.406489 
L 194.01105 234.206882 
L 194.171189 234.97951 
L 194.578833 235.701662 
L 195.189435 236.366451 
L 196.583121 237.373823 
L 199.440081 238.885944 
L 199.409648 238.848927 
L 199.267942 238.602377 
L 198.519252 239.371834 
L 197.400417 240.500325 
L 196.858078 241.257223 
L 196.516702 242.099615 
L 196.487423 242.960635 
L 196.791998 243.785937 
L 197.388204 244.542154 
L 198.176443 245.195536 
L 199.93028 246.185839 
L 203.00666 247.459489 
L 202.909206 247.384074 
L 202.631566 247.016781 
L 202.540204 247.1289 
L 200.299489 249.715824 
L 199.998687 250.650952 
L 200.104651 251.609826 
L 200.625597 252.500695 
L 201.449083 253.258105 
L 202.457509 253.887866 
L 204.315698 254.715166 
L 207.172241 255.727322 
L 207.025185 255.612315 
L 206.577788 255.202437 
L 204.710501 256.910067 
L 203.726859 258.051484 
L 203.058557 259.358959 
L 202.937556 260.603034 
L 203.365776 261.651379 
L 204.263112 262.561588 
L 205.499754 263.324378 
L 206.912702 263.936013 
L 209.427503 264.693141 
L 213.313507 265.555019 
L 213.209301 265.50919 
L 212.574448 265.149255 
L 212.146956 264.626056 
L 212.108535 264.512242 
L 211.520282 265.02845 
L 209.494141 266.73811 
L 208.331267 267.996502 
L 207.616261 269.449408 
L 207.737291 271.011879 
L 208.741583 272.434456 
L 210.397183 273.529866 
L 212.502423 274.339437 
L 214.594047 274.855562 
L 217.654049 275.286925 
L 221.230123 275.594207 
L 220.798613 275.510691 
L 219.572981 275.094702 
L 219.673288 275.297558 
L 219.785137 275.686964 
L 219.811782 276.256558 
L 219.527838 278.993905 
L 219.757982 280.229544 
L 220.520376 281.561844 
L 222.040042 282.932239 
L 224.294988 284.173707 
L 226.792233 285.056758 
L 229.42539 285.628822 
L 232.023135 285.9432 
L 235.964999 286.062278 
L 242.787963 285.972692 
L 248.184332 286.038814 
L 249.956486 286.291361 
L 252.082275 286.874487 
L 253.894623 287.682687 
L 259.561541 290.774359 
L 262.052722 291.770104 
L 265.271748 292.712935 
L 269.192294 293.462057 
L 273.691093 293.892886 
L 278.399803 293.911787 
L 282.437536 293.574584 
L 285.297292 293.055372 
L 288.081001 292.145916 
L 288.630214 291.888942 
L 288.138047 292.061793 
L 287.198387 292.230552 
L 287.419785 292.245936 
L 291.142341 292.646332 
L 296.364182 293.544568 
L 301.118903 294.39595 
L 303.920738 294.810558 
L 307.167586 295.176228 
L 310.785022 295.424871 
L 314.517696 295.488 
L 318.244074 295.338592 
L 321.818895 294.974136 
L 325.062569 294.42247 
L 329.262815 293.301555 
L 331.423505 292.381571 
L 331.227915 292.439101 
L 330.949644 292.509367 
L 331.590563 292.451199 
L 333.353357 292.358955 
L 336.053375 292.437071 
L 342.160559 292.95329 
L 347.902856 293.386254 
L 351.339729 293.505196 
L 355.225837 293.468022 
L 359.393195 293.181075 
L 363.50625 292.579247 
L 367.146909 291.65246 
L 370.034343 290.431379 
L 371.82768 289.135175 
L 372.521943 288.112543 
L 372.603282 287.375823 
L 372.253904 286.530292 
L 372.265017 286.616623 
L 372.150171 286.968165 
L 372.328894 286.878809 
L 374.078877 286.40731 
L 376.742501 285.982645 
L 383.991562 285.106041 
L 387.257509 284.592941 
L 390.816391 283.824468 
L 394.22606 282.733046 
L 396.956109 281.298999 
L 398.487273 279.575775 
L 398.423139 277.754948 
L 398.423139 277.754948 
" style="fill:none;stroke:#1f77b4;stroke-linecap:square;stroke-width:1.5;"/>
   </g>
   <g id="patch_3">
    <path d="M 57.6 307.584 
L 57.6 41.472 
" style="fill:none;stroke:#000000;stroke-linecap:square;stroke-linejoin:miter;stroke-width:0.8;"/>
   </g>
   <g id="patch_4">
    <path d="M 414.72 307.584 
L 414.72 41.472 
" style="fill:none;stroke:#000000;stroke-linecap:square;stroke-linejoin:miter;stroke-width:0.8;"/>
   </g>
   <g id="patch_5">
    <path d="M 57.6 307.584 
L 414.72 307.584 
" style="fill:none;stroke:#000000;stroke-linecap:square;stroke-linejoin:miter;stroke-width:0.8;"/>
   </g>
   <g id="patch_6">
    <path d="M 57.6 41.472 
L 414.72 41.472 
" style="fill:none;stroke:#000000;stroke-linecap:square;stroke-linejoin:miter;stroke-width:0.8;"/>
   </g>
   <g id="text_10">
    <!-- Robot GPS Path -->
    <defs>
     <path d="M 44.390625 34.1875 
Q 47.5625 33.109375 50.5625 29.59375 
Q 53.5625 26.078125 56.59375 19.921875 
L 66.609375 0 
L 56 0 
L 46.6875 18.703125 
Q 43.0625 26.03125 39.671875 28.421875 
Q 36.28125 30.8125 30.421875 30.8125 
L 19.671875 30.8125 
L 19.671875 0 
L 9.8125 0 
L 9.8125 72.90625 
L 32.078125 72.90625 
Q 44.578125 72.90625 50.734375 67.671875 
Q 56.890625 62.453125 56.890625 51.90625 
Q 56.890625 45.015625 53.6875 40.46875 
Q 50.484375 35.9375 44.390625 34.1875 
z
M 19.671875 64.796875 
L 19.671875 38.921875 
L 32.078125 38.921875 
Q 39.203125 38.921875 42.84375 42.21875 
Q 46.484375 45.515625 46.484375 51.90625 
Q 46.484375 58.296875 42.84375 61.546875 
Q 39.203125 64.796875 32.078125 64.796875 
z
" id="DejaVuSans-82"/>
     <path d="M 30.609375 48.390625 
Q 23.390625 48.390625 19.1875 42.75 
Q 14.984375 37.109375 14.984375 27.296875 
Q 14.984375 17.484375 19.15625 11.84375 
Q 23.34375 6.203125 30.609375 6.203125 
Q 37.796875 6.203125 41.984375 11.859375 
Q 46.1875 17.53125 46.1875 27.296875 
Q 46.1875 37.015625 41.984375 42.703125 
Q 37.796875 48.390625 30.609375 48.390625 
z
M 30.609375 56 
Q 42.328125 56 49.015625 48.375 
Q 55.71875 40.765625 55.71875 27.296875 
Q 55.71875 13.875 49.015625 6.21875 
Q 42.328125 -1.421875 30.609375 -1.421875 
Q 18.84375 -1.421875 12.171875 6.21875 
Q 5.515625 13.875 5.515625 27.296875 
Q 5.515625 40.765625 12.171875 48.375 
Q 18.84375 56 30.609375 56 
z
" id="DejaVuSans-111"/>
     <path d="M 48.6875 27.296875 
Q 48.6875 37.203125 44.609375 42.84375 
Q 40.53125 48.484375 33.40625 48.484375 
Q 26.265625 48.484375 22.1875 42.84375 
Q 18.109375 37.203125 18.109375 27.296875 
Q 18.109375 17.390625 22.1875 11.75 
Q 26.265625 6.109375 33.40625 6.109375 
Q 40.53125 6.109375 44.609375 11.75 
Q 48.6875 17.390625 48.6875 27.296875 
z
M 18.109375 46.390625 
Q 20.953125 51.265625 25.265625 53.625 
Q 29.59375 56 35.59375 56 
Q 45.5625 56 51.78125 48.09375 
Q 58.015625 40.1875 58.015625 27.296875 
Q 58.015625 14.40625 51.78125 6.484375 
Q 45.5625 -1.421875 35.59375 -1.421875 
Q 29.59375 -1.421875 25.265625 0.953125 
Q 20.953125 3.328125 18.109375 8.203125 
L 18.109375 0 
L 9.078125 0 
L 9.078125 75.984375 
L 18.109375 75.984375 
z
" id="DejaVuSans-98"/>
     <path d="M 18.3125 70.21875 
L 18.3125 54.6875 
L 36.8125 54.6875 
L 36.8125 47.703125 
L 18.3125 47.703125 
L 18.3125 18.015625 
Q 18.3125 11.328125 20.140625 9.421875 
Q 21.96875 7.515625 27.59375 7.515625 
L 36.8125 7.515625 
L 36.8125 0 
L 27.59375 0 
Q 17.1875 0 13.234375 3.875 
Q 9.28125 7.765625 9.28125 18.015625 
L 9.28125 47.703125 
L 2.6875 47.703125 
L 2.6875 54.6875 
L 9.28125 54.6875 
L 9.28125 70.21875 
z
" id="DejaVuSans-116"/>
     <path id="DejaVuSans-32"/>
     <path d="M 59.515625 10.40625 
L 59.515625 29.984375 
L 43.40625 29.984375 
L 43.40625 38.09375 
L 69.28125 38.09375 
L 69.28125 6.78125 
Q 63.578125 2.734375 56.6875 0.65625 
Q 49.8125 -1.421875 42 -1.421875 
Q 24.90625 -1.421875 15.25 8.5625 
Q 5.609375 18.5625 5.609375 36.375 
Q 5.609375 54.25 15.25 64.234375 
Q 24.90625 74.21875 42 74.21875 
Q 49.125 74.21875 55.546875 72.453125 
Q 61.96875 70.703125 67.390625 67.28125 
L 67.390625 56.78125 
Q 61.921875 61.421875 55.765625 63.765625 
Q 49.609375 66.109375 42.828125 66.109375 
Q 29.4375 66.109375 22.71875 58.640625 
Q 16.015625 51.171875 16.015625 36.375 
Q 16.015625 21.625 22.71875 14.15625 
Q 29.4375 6.6875 42.828125 6.6875 
Q 48.046875 6.6875 52.140625 7.59375 
Q 56.25 8.5 59.515625 10.40625 
z
" id="DejaVuSans-71"/>
     <path d="M 19.671875 64.796875 
L 19.671875 37.40625 
L 32.078125 37.40625 
Q 38.96875 37.40625 42.71875 40.96875 
Q 46.484375 44.53125 46.484375 51.125 
Q 46.484375 57.671875 42.71875 61.234375 
Q 38.96875 64.796875 32.078125 64.796875 
z
M 9.8125 72.90625 
L 32.078125 72.90625 
Q 44.34375 72.90625 50.609375 67.359375 
Q 56.890625 61.8125 56.890625 51.125 
Q 56.890625 40.328125 50.609375 34.8125 
Q 44.34375 29.296875 32.078125 29.296875 
L 19.671875 29.296875 
L 19.671875 0 
L 9.8125 0 
z
" id="DejaVuSans-80"/>
     <path d="M 53.515625 70.515625 
L 53.515625 60.890625 
Q 47.90625 63.578125 42.921875 64.890625 
Q 37.9375 66.21875 33.296875 66.21875 
Q 25.25 66.21875 20.875 63.09375 
Q 16.5 59.96875 16.5 54.203125 
Q 16.5 49.359375 19.40625 46.890625 
Q 22.3125 44.4375 30.421875 42.921875 
L 36.375 41.703125 
Q 47.40625 39.59375 52.65625 34.296875 
Q 57.90625 29 57.90625 20.125 
Q 57.90625 9.515625 50.796875 4.046875 
Q 43.703125 -1.421875 29.984375 -1.421875 
Q 24.8125 -1.421875 18.96875 -0.25 
Q 13.140625 0.921875 6.890625 3.21875 
L 6.890625 13.375 
Q 12.890625 10.015625 18.65625 8.296875 
Q 24.421875 6.59375 29.984375 6.59375 
Q 38.421875 6.59375 43.015625 9.90625 
Q 47.609375 13.234375 47.609375 19.390625 
Q 47.609375 24.75 44.3125 27.78125 
Q 41.015625 30.8125 33.5 32.328125 
L 27.484375 33.5 
Q 16.453125 35.6875 11.515625 40.375 
Q 6.59375 45.0625 6.59375 53.421875 
Q 6.59375 63.09375 13.40625 68.65625 
Q 20.21875 74.21875 32.171875 74.21875 
Q 37.3125 74.21875 42.625 73.28125 
Q 47.953125 72.359375 53.515625 70.515625 
z
" id="DejaVuSans-83"/>
     <path d="M 34.28125 27.484375 
Q 23.390625 27.484375 19.1875 25 
Q 14.984375 22.515625 14.984375 16.5 
Q 14.984375 11.71875 18.140625 8.90625 
Q 21.296875 6.109375 26.703125 6.109375 
Q 34.1875 6.109375 38.703125 11.40625 
Q 43.21875 16.703125 43.21875 25.484375 
L 43.21875 27.484375 
z
M 52.203125 31.203125 
L 52.203125 0 
L 43.21875 0 
L 43.21875 8.296875 
Q 40.140625 3.328125 35.546875 0.953125 
Q 30.953125 -1.421875 24.3125 -1.421875 
Q 15.921875 -1.421875 10.953125 3.296875 
Q 6 8.015625 6 15.921875 
Q 6 25.140625 12.171875 29.828125 
Q 18.359375 34.515625 30.609375 34.515625 
L 43.21875 34.515625 
L 43.21875 35.40625 
Q 43.21875 41.609375 39.140625 45 
Q 35.0625 48.390625 27.6875 48.390625 
Q 23 48.390625 18.546875 47.265625 
Q 14.109375 46.140625 10.015625 43.890625 
L 10.015625 52.203125 
Q 14.9375 54.109375 19.578125 55.046875 
Q 24.21875 56 28.609375 56 
Q 40.484375 56 46.34375 49.84375 
Q 52.203125 43.703125 52.203125 31.203125 
z
" id="DejaVuSans-97"/>
     <path d="M 54.890625 33.015625 
L 54.890625 0 
L 45.90625 0 
L 45.90625 32.71875 
Q 45.90625 40.484375 42.875 44.328125 
Q 39.84375 48.1875 33.796875 48.1875 
Q 26.515625 48.1875 22.3125 43.546875 
Q 18.109375 38.921875 18.109375 30.90625 
L 18.109375 0 
L 9.078125 0 
L 9.078125 75.984375 
L 18.109375 75.984375 
L 18.109375 46.1875 
Q 21.34375 51.125 25.703125 53.5625 
Q 30.078125 56 35.796875 56 
Q 45.21875 56 50.046875 50.171875 
Q 54.890625 44.34375 54.890625 33.015625 
z
" id="DejaVuSans-104"/>
    </defs>
    <g transform="translate(189.155625 35.472)scale(0.12 -0.12)">
     <use xlink:href="#DejaVuSans-82"/>
     <use x="69.419922" xlink:href="#DejaVuSans-111"/>
     <use x="130.601562" xlink:href="#DejaVuSans-98"/>
     <use x="194.078125" xlink:href="#DejaVuSans-111"/>
     <use x="255.259766" xlink:href="#DejaVuSans-116"/>
     <use x="294.46875" xlink:href="#DejaVuSans-32"/>
     <use x="326.255859" xlink:href="#DejaVuSans-71"/>
     <use x="403.746094" xlink:href="#DejaVuSans-80"/>
     <use x="464.048828" xlink:href="#DejaVuSans-83"/>
     <use x="527.525391" xlink:href="#DejaVuSans-32"/>
     <use x="559.3125" xlink:href="#DejaVuSans-80"/>
     <use x="619.552734" xlink:href="#DejaVuSans-97"/>
     <use x="680.832031" xlink:href="#DejaVuSans-116"/>
     <use x="720.041016" xlink:href="#DejaVuSans-104"/>
    </g>
   </g>
  </g>
 </g>
 <defs>
  <clipPath id="p1ec4cdc35c">
   <rect height="266.112" width="357.12" x="57.6" y="41.472"/>
  </clipPath>
 </defs>
</svg>
