<?xml version="1.0" encoding="utf-8" standalone="no"?>
<!DOCTYPE svg PUBLIC "-//W3C//DTD SVG 1.1//EN"
  "http://www.w3.org/Graphics/SVG/1.1/DTD/svg11.dtd">
<!-- Created with matplotlib (http://matplotlib.org/) -->
<svg height="345.6pt" version="1.1" viewBox="0 0 460.8 345.6" width="460.8pt" xmlns="http://www.w3.org/2000/svg" xmlns:xlink="http://www.w3.org/1999/xlink">
 <defs>
  <style type="text/css">
*{stroke-linecap:butt;stroke-linejoin:round;}
  </style>
 </defs>
 <g id="figure_1">
  <g id="patch_1">
   <path d="M 0 345.6 
L 460.8 345.6 
L 460.8 0 
L 0 0 
z
" style="fill:#ffffff;"/>
  </g>
  <g id="axes_1">
   <g id="patch_2">
    <path d="M 57.6 307.584 
L 414.72 307.584 
L 414.72 41.472 
L 57.6 41.472 
z
" style="fill:#ffffff;"/>
   </g>
   <g id="matplotlib.axis_1">
    <g id="xtick_1">
     <g id="line2d_1">
      <defs>
       <path d="M 0 0 
L 0 3.5 
" id="m6043253c44" style="stroke:#000000;stroke-width:0.8;"/>
      </defs>
      <g>
       <use style="stroke:#000000;stroke-width:0.8;" x="78.259582" xlink:href="#m6043253c44" y="307.584"/>
      </g>
     </g>
     <g id="text_1">
      <!-- −10 -->
      <defs>
       <path d="M 10.59375 35.5 
L 73.1875 35.5 
L 73.1875 27.203125 
L 10.59375 27.203125 
z
" id="DejaVuSans-2212"/>
       <path d="M 12.40625 8.296875 
L 28.515625 8.296875 
L 28.515625 63.921875 
L 10.984375 60.40625 
L 10.984375 69.390625 
L 28.421875 72.90625 
L 38.28125 72.90625 
L 38.28125 8.296875 
L 54.390625 8.296875 
L 54.390625 0 
L 12.40625 0 
z
" id="DejaVuSans-31"/>
       <path d="M 31.78125 66.40625 
Q 24.171875 66.40625 20.328125 58.90625 
Q 16.5 51.421875 16.5 36.375 
Q 16.5 21.390625 20.328125 13.890625 
Q 24.171875 6.390625 31.78125 6.390625 
Q 39.453125 6.390625 43.28125 13.890625 
Q 47.125 21.390625 47.125 36.375 
Q 47.125 51.421875 43.28125 58.90625 
Q 39.453125 66.40625 31.78125 66.40625 
z
M 31.78125 74.21875 
Q 44.046875 74.21875 50.515625 64.515625 
Q 56.984375 54.828125 56.984375 36.375 
Q 56.984375 17.96875 50.515625 8.265625 
Q 44.046875 -1.421875 31.78125 -1.421875 
Q 19.53125 -1.421875 13.0625 8.265625 
Q 6.59375 17.96875 6.59375 36.375 
Q 6.59375 54.828125 13.0625 64.515625 
Q 19.53125 74.21875 31.78125 74.21875 
z
" id="DejaVuSans-30"/>
      </defs>
      <g transform="translate(67.707238 322.182437)scale(0.1 -0.1)">
       <use xlink:href="#DejaVuSans-2212"/>
       <use x="83.789062" xlink:href="#DejaVuSans-31"/>
       <use x="147.412109" xlink:href="#DejaVuSans-30"/>
      </g>
     </g>
    </g>
    <g id="xtick_2">
     <g id="line2d_2">
      <g>
       <use style="stroke:#000000;stroke-width:0.8;" x="157.261155" xlink:href="#m6043253c44" y="307.584"/>
      </g>
     </g>
     <g id="text_2">
      <!-- −5 -->
      <defs>
       <path d="M 10.796875 72.90625 
L 49.515625 72.90625 
L 49.515625 64.59375 
L 19.828125 64.59375 
L 19.828125 46.734375 
Q 21.96875 47.46875 24.109375 47.828125 
Q 26.265625 48.1875 28.421875 48.1875 
Q 40.625 48.1875 47.75 41.5 
Q 54.890625 34.8125 54.890625 23.390625 
Q 54.890625 11.625 47.5625 5.09375 
Q 40.234375 -1.421875 26.90625 -1.421875 
Q 22.3125 -1.421875 17.546875 -0.640625 
Q 12.796875 0.140625 7.71875 1.703125 
L 7.71875 11.625 
Q 12.109375 9.234375 16.796875 8.0625 
Q 21.484375 6.890625 26.703125 6.890625 
Q 35.15625 6.890625 40.078125 11.328125 
Q 45.015625 15.765625 45.015625 23.390625 
Q 45.015625 31 40.078125 35.4375 
Q 35.15625 39.890625 26.703125 39.890625 
Q 22.75 39.890625 18.8125 39.015625 
Q 14.890625 38.140625 10.796875 36.28125 
z
" id="DejaVuSans-35"/>
      </defs>
      <g transform="translate(149.890061 322.182437)scale(0.1 -0.1)">
       <use xlink:href="#DejaVuSans-2212"/>
       <use x="83.789062" xlink:href="#DejaVuSans-35"/>
      </g>
     </g>
    </g>
    <g id="xtick_3">
     <g id="line2d_3">
      <g>
       <use style="stroke:#000000;stroke-width:0.8;" x="236.262729" xlink:href="#m6043253c44" y="307.584"/>
      </g>
     </g>
     <g id="text_3">
      <!-- 0 -->
      <g transform="translate(233.081479 322.182437)scale(0.1 -0.1)">
       <use xlink:href="#DejaVuSans-30"/>
      </g>
     </g>
    </g>
    <g id="xtick_4">
     <g id="line2d_4">
      <g>
       <use style="stroke:#000000;stroke-width:0.8;" x="315.264302" xlink:href="#m6043253c44" y="307.584"/>
      </g>
     </g>
     <g id="text_4">
      <!-- 5 -->
      <g transform="translate(312.083052 322.182437)scale(0.1 -0.1)">
       <use xlink:href="#DejaVuSans-35"/>
      </g>
     </g>
    </g>
    <g id="xtick_5">
     <g id="line2d_5">
      <g>
       <use style="stroke:#000000;stroke-width:0.8;" x="394.265875" xlink:href="#m6043253c44" y="307.584"/>
      </g>
     </g>
     <g id="text_5">
      <!-- 10 -->
      <g transform="translate(387.903375 322.182437)scale(0.1 -0.1)">
       <use xlink:href="#DejaVuSans-31"/>
       <use x="63.623047" xlink:href="#DejaVuSans-30"/>
      </g>
     </g>
    </g>
   </g>
   <g id="matplotlib.axis_2">
    <g id="ytick_1">
     <g id="line2d_6">
      <defs>
       <path d="M 0 0 
L -3.5 0 
" id="m84edf3b9d6" style="stroke:#000000;stroke-width:0.8;"/>
      </defs>
      <g>
       <use style="stroke:#000000;stroke-width:0.8;" x="57.6" xlink:href="#m84edf3b9d6" y="301.519995"/>
      </g>
     </g>
     <g id="text_6">
      <!-- −6 -->
      <defs>
       <path d="M 33.015625 40.375 
Q 26.375 40.375 22.484375 35.828125 
Q 18.609375 31.296875 18.609375 23.390625 
Q 18.609375 15.53125 22.484375 10.953125 
Q 26.375 6.390625 33.015625 6.390625 
Q 39.65625 6.390625 43.53125 10.953125 
Q 47.40625 15.53125 47.40625 23.390625 
Q 47.40625 31.296875 43.53125 35.828125 
Q 39.65625 40.375 33.015625 40.375 
z
M 52.59375 71.296875 
L 52.59375 62.3125 
Q 48.875 64.0625 45.09375 64.984375 
Q 41.3125 65.921875 37.59375 65.921875 
Q 27.828125 65.921875 22.671875 59.328125 
Q 17.53125 52.734375 16.796875 39.40625 
Q 19.671875 43.65625 24.015625 45.921875 
Q 28.375 48.1875 33.59375 48.1875 
Q 44.578125 48.1875 50.953125 41.515625 
Q 57.328125 34.859375 57.328125 23.390625 
Q 57.328125 12.15625 50.6875 5.359375 
Q 44.046875 -1.421875 33.015625 -1.421875 
Q 20.359375 -1.421875 13.671875 8.265625 
Q 6.984375 17.96875 6.984375 36.375 
Q 6.984375 53.65625 15.1875 63.9375 
Q 23.390625 74.21875 37.203125 74.21875 
Q 40.921875 74.21875 44.703125 73.484375 
Q 48.484375 72.75 52.59375 71.296875 
z
" id="DejaVuSans-36"/>
      </defs>
      <g transform="translate(35.857813 305.319214)scale(0.1 -0.1)">
       <use xlink:href="#DejaVuSans-2212"/>
       <use x="83.789062" xlink:href="#DejaVuSans-36"/>
      </g>
     </g>
    </g>
    <g id="ytick_2">
     <g id="line2d_7">
      <g>
       <use style="stroke:#000000;stroke-width:0.8;" x="57.6" xlink:href="#m84edf3b9d6" y="257.686241"/>
      </g>
     </g>
     <g id="text_7">
      <!-- −4 -->
      <defs>
       <path d="M 37.796875 64.3125 
L 12.890625 25.390625 
L 37.796875 25.390625 
z
M 35.203125 72.90625 
L 47.609375 72.90625 
L 47.609375 25.390625 
L 58.015625 25.390625 
L 58.015625 17.1875 
L 47.609375 17.1875 
L 47.609375 0 
L 37.796875 0 
L 37.796875 17.1875 
L 4.890625 17.1875 
L 4.890625 26.703125 
z
" id="DejaVuSans-34"/>
      </defs>
      <g transform="translate(35.857813 261.48546)scale(0.1 -0.1)">
       <use xlink:href="#DejaVuSans-2212"/>
       <use x="83.789062" xlink:href="#DejaVuSans-34"/>
      </g>
     </g>
    </g>
    <g id="ytick_3">
     <g id="line2d_8">
      <g>
       <use style="stroke:#000000;stroke-width:0.8;" x="57.6" xlink:href="#m84edf3b9d6" y="213.852487"/>
      </g>
     </g>
     <g id="text_8">
      <!-- −2 -->
      <defs>
       <path d="M 19.1875 8.296875 
L 53.609375 8.296875 
L 53.609375 0 
L 7.328125 0 
L 7.328125 8.296875 
Q 12.9375 14.109375 22.625 23.890625 
Q 32.328125 33.6875 34.8125 36.53125 
Q 39.546875 41.84375 41.421875 45.53125 
Q 43.3125 49.21875 43.3125 52.78125 
Q 43.3125 58.59375 39.234375 62.25 
Q 35.15625 65.921875 28.609375 65.921875 
Q 23.96875 65.921875 18.8125 64.3125 
Q 13.671875 62.703125 7.8125 59.421875 
L 7.8125 69.390625 
Q 13.765625 71.78125 18.9375 73 
Q 24.125 74.21875 28.421875 74.21875 
Q 39.75 74.21875 46.484375 68.546875 
Q 53.21875 62.890625 53.21875 53.421875 
Q 53.21875 48.921875 51.53125 44.890625 
Q 49.859375 40.875 45.40625 35.40625 
Q 44.1875 33.984375 37.640625 27.21875 
Q 31.109375 20.453125 19.1875 8.296875 
z
" id="DejaVuSans-32"/>
      </defs>
      <g transform="translate(35.857813 217.651706)scale(0.1 -0.1)">
       <use xlink:href="#DejaVuSans-2212"/>
       <use x="83.789062" xlink:href="#DejaVuSans-32"/>
      </g>
     </g>
    </g>
    <g id="ytick_4">
     <g id="line2d_9">
      <g>
       <use style="stroke:#000000;stroke-width:0.8;" x="57.6" xlink:href="#m84edf3b9d6" y="170.018733"/>
      </g>
     </g>
     <g id="text_9">
      <!-- 0 -->
      <g transform="translate(44.2375 173.817952)scale(0.1 -0.1)">
       <use xlink:href="#DejaVuSans-30"/>
      </g>
     </g>
    </g>
    <g id="ytick_5">
     <g id="line2d_10">
      <g>
       <use style="stroke:#000000;stroke-width:0.8;" x="57.6" xlink:href="#m84edf3b9d6" y="126.18498"/>
      </g>
     </g>
     <g id="text_10">
      <!-- 2 -->
      <g transform="translate(44.2375 129.984198)scale(0.1 -0.1)">
       <use xlink:href="#DejaVuSans-32"/>
      </g>
     </g>
    </g>
    <g id="ytick_6">
     <g id="line2d_11">
      <g>
       <use style="stroke:#000000;stroke-width:0.8;" x="57.6" xlink:href="#m84edf3b9d6" y="82.351226"/>
      </g>
     </g>
     <g id="text_11">
      <!-- 4 -->
      <g transform="translate(44.2375 86.150445)scale(0.1 -0.1)">
       <use xlink:href="#DejaVuSans-34"/>
      </g>
     </g>
    </g>
   </g>
   <g id="line2d_12">
    <path clip-path="url(#p55c0b95f1f)" d="M 236.262729 170.018733 
L 236.172002 162.310698 
L 235.975842 157.459922 
L 235.64628 152.581536 
L 235.17829 147.718117 
L 234.571024 142.883296 
L 233.825013 138.085794 
L 232.941334 133.333468 
L 231.921369 128.633953 
L 230.766742 123.994768 
L 229.479297 119.42334 
L 228.061095 114.926991 
L 226.514403 110.512899 
L 224.841695 106.188136 
L 223.045647 101.959609 
L 221.129133 97.834085 
L 219.095217 93.818173 
L 216.947157 89.918292 
L 214.688384 86.140684 
L 212.322517 82.491387 
L 209.853341 78.97623 
L 207.284799 75.600857 
L 204.621004 72.370657 
L 201.866219 69.29079 
L 199.024843 66.366202 
L 196.101432 63.601563 
L 193.100659 61.001293 
L 190.027329 58.569553 
L 186.88635 56.310241 
L 183.68275 54.226951 
L 180.421649 52.323027 
L 177.108268 50.601522 
L 173.74792 49.065184 
L 170.345964 47.716459 
L 166.907855 46.557519 
L 163.439075 45.590206 
L 159.945198 44.816095 
L 156.431785 44.236401 
L 152.904472 43.852063 
L 149.368901 43.663688 
L 145.830739 43.671588 
L 142.295627 43.875724 
L 138.769225 44.27579 
L 135.257176 44.87114 
L 131.765093 45.660811 
L 128.298573 46.643561 
L 124.863154 47.817821 
L 121.464336 49.1817 
L 118.107566 50.733014 
L 114.798194 52.469276 
L 111.54153 54.387715 
L 108.342783 56.485271 
L 105.207058 58.758577 
L 102.139367 61.204018 
L 99.144652 63.817643 
L 96.227675 66.595304 
L 93.393107 69.532548 
L 90.645452 72.624663 
L 87.989158 75.866725 
L 85.428442 79.25352 
L 82.967418 82.779656 
L 80.610004 86.439478 
L 78.359982 90.227133 
L 76.220969 94.136572 
L 74.19637 98.161528 
L 72.289409 102.29557 
L 70.503161 106.532076 
L 68.840489 110.864281 
L 67.304029 115.285238 
L 65.896238 119.787894 
L 64.619391 124.365034 
L 63.475507 129.00934 
L 62.466424 133.713378 
L 61.593771 138.469628 
L 60.858917 143.270473 
L 60.263069 148.108239 
L 59.807161 152.975192 
L 59.491916 157.863538 
L 59.317862 162.765461 
L 59.285284 167.673119 
L 59.394198 172.57866 
L 59.644438 177.474237 
L 60.035613 182.352015 
L 60.567073 187.204195 
L 61.238007 192.023013 
L 62.047313 196.800763 
L 62.993742 201.529799 
L 64.075725 206.202557 
L 65.291545 210.811561 
L 66.639259 215.349436 
L 68.116726 219.808926 
L 69.721581 224.182891 
L 71.451232 228.464341 
L 73.302937 232.64643 
L 75.273712 236.722454 
L 77.360438 240.685908 
L 79.559755 244.530437 
L 81.868121 248.249907 
L 84.281891 251.83835 
L 86.797176 255.290034 
L 89.409938 258.59943 
L 92.116033 261.761251 
L 94.911108 264.770439 
L 97.790715 267.622175 
L 100.750231 270.311903 
L 103.784907 272.835317 
L 106.889907 275.188373 
L 110.060259 277.367309 
L 113.290899 279.368644 
L 116.576651 281.18917 
L 119.912257 282.825993 
L 123.292383 284.276467 
L 126.711626 285.538273 
L 130.16451 286.609426 
L 133.645518 287.488191 
L 137.149061 288.173145 
L 140.669563 288.663214 
L 144.201375 288.957612 
L 147.738844 289.05586 
L 151.276321 288.9578 
L 154.80814 288.663611 
L 158.328643 288.173741 
L 161.832216 287.488974 
L 165.313247 286.610429 
L 168.766153 285.539475 
L 172.185441 284.277836 
L 175.565612 282.82755 
L 178.901267 281.190926 
L 182.187076 279.370588 
L 185.417776 277.369431 
L 188.588196 275.190673 
L 191.693268 272.837773 
L 194.728027 270.314516 
L 197.68761 267.624955 
L 200.567289 264.773376 
L 203.362461 261.764334 
L 206.06864 258.60266 
L 208.681509 255.293404 
L 211.196887 251.841861 
L 213.610748 248.253549 
L 215.91923 244.534204 
L 218.118637 240.689785 
L 220.205455 236.726436 
L 222.176343 232.650506 
L 224.028149 228.468521 
L 225.757909 224.187145 
L 227.362857 219.813252 
L 228.840425 215.353831 
L 230.18825 210.816013 
L 231.404175 206.207061 
L 232.486257 201.53435 
L 233.432763 196.805353 
L 234.242179 192.027637 
L 234.91321 187.208845 
L 235.444782 182.356683 
L 235.836045 177.478918 
L 236.613732 162.793081 
L 237.030314 157.918933 
L 237.581106 153.070738 
L 238.269587 148.256624 
L 239.095865 143.48443 
L 240.058943 138.761855 
L 241.157367 134.096469 
L 242.389402 129.495738 
L 243.753081 124.96703 
L 245.246225 120.517578 
L 246.866452 116.154508 
L 248.611166 111.884815 
L 250.477576 107.715309 
L 252.462699 103.652677 
L 254.563354 99.7034 
L 256.776187 95.873816 
L 259.097652 92.170038 
L 261.524037 88.597987 
L 264.05146 85.163395 
L 266.675879 81.871744 
L 269.393101 78.728306 
L 272.198768 75.738107 
L 275.088393 72.905925 
L 278.057359 70.236294 
L 281.100918 67.733488 
L 284.214199 65.401522 
L 287.392213 63.244115 
L 290.629882 61.264716 
L 293.922024 59.466492 
L 297.263371 57.852327 
L 300.648586 56.424802 
L 304.072252 55.186186 
L 307.528872 54.138474 
L 311.012947 53.283339 
L 314.518878 52.62215 
L 318.041076 52.155972 
L 321.573889 51.885547 
L 325.111682 51.811305 
L 328.648783 51.93336 
L 332.179532 52.251513 
L 335.698286 52.765273 
L 339.199418 53.473805 
L 342.677315 54.375968 
L 346.126424 55.470343 
L 349.541214 56.755172 
L 352.916239 58.228377 
L 356.246104 59.887616 
L 359.525461 61.730246 
L 362.749086 63.753298 
L 365.911783 65.953553 
L 369.008541 68.32749 
L 372.034387 70.871294 
L 374.984469 73.58092 
L 377.854057 76.452021 
L 380.638583 79.48002 
L 383.333588 82.660031 
L 385.934763 85.98699 
L 388.437948 89.455573 
L 390.839136 93.060236 
L 393.134483 96.795198 
L 395.320314 100.6545 
L 397.393147 104.631962 
L 399.349667 108.721223 
L 401.186725 112.915738 
L 402.901383 117.208793 
L 404.490914 121.593528 
L 405.95277 126.062925 
L 407.284632 130.609825 
L 408.484329 135.226975 
L 409.549963 139.906976 
L 410.479816 144.642342 
L 411.272427 149.4255 
L 411.926514 154.248795 
L 412.441008 159.104511 
L 412.81511 163.984881 
L 413.048232 168.8821 
L 413.139969 173.788332 
L 413.090213 178.695727 
L 412.89901 183.596438 
L 412.566678 188.482621 
L 412.093743 193.346461 
L 411.480973 198.180179 
L 410.729363 202.976043 
L 409.840059 207.726378 
L 408.814567 212.423583 
L 407.654455 217.060151 
L 406.361605 221.628658 
L 404.938067 226.121804 
L 403.386163 230.532384 
L 401.708346 234.853353 
L 399.907286 239.077799 
L 397.98589 243.198966 
L 395.947232 247.210258 
L 393.794552 251.105253 
L 391.531316 254.877745 
L 389.161124 258.521666 
L 386.687774 262.031195 
L 384.115244 265.400736 
L 381.447618 268.624875 
L 378.68919 271.698471 
L 375.844345 274.616611 
L 372.917664 277.374604 
L 369.913818 279.968059 
L 366.837613 282.392808 
L 363.693947 284.644993 
L 360.487869 286.720999 
L 357.224508 288.617502 
L 353.909093 290.331482 
L 350.546906 291.860181 
L 347.143349 293.201162 
L 343.703847 294.352274 
L 340.233921 295.311677 
L 336.73911 296.077865 
L 333.225012 296.649565 
L 329.697231 297.025887 
L 326.161427 297.206236 
L 322.623242 297.190309 
L 319.088349 296.978137 
L 315.562407 296.570034 
L 312.051051 295.9667 
L 308.559901 295.169076 
L 305.094526 294.178436 
L 301.660494 292.996358 
L 298.263292 291.624756 
L 294.908342 290.065803 
L 291.601019 288.322006 
L 288.346616 286.396136 
L 285.150335 284.291297 
L 282.017289 282.010842 
L 278.952488 279.55843 
L 275.960839 276.937981 
L 273.047128 274.153683 
L 270.216021 271.20998 
L 267.472035 268.111606 
L 264.819567 264.863503 
L 262.262856 261.470856 
L 259.806 257.939108 
L 257.452924 254.273909 
L 255.207391 250.481128 
L 253.073 246.566814 
L 251.053156 242.537233 
L 249.151097 238.398843 
L 247.369862 234.158251 
L 245.712303 229.822253 
L 244.181071 225.397779 
L 242.778615 220.891914 
L 241.507179 216.311854 
L 240.368796 211.664935 
L 239.365289 206.95859 
L 238.498263 202.200344 
L 237.769104 197.397813 
L 237.178979 192.558673 
L 236.728833 187.690673 
L 236.419385 182.801596 
L 235.726326 163.193858 
L 235.326245 158.317281 
L 234.788186 153.466436 
L 234.111331 148.649195 
L 233.296304 143.873308 
L 232.344289 139.146438 
L 231.256777 134.476154 
L 230.035499 129.869925 
L 228.682407 125.335122 
L 227.199665 120.879003 
L 225.589644 116.508695 
L 223.854922 112.231185 
L 221.998273 108.053324 
L 220.022667 103.981793 
L 217.931266 100.0231 
L 215.727411 96.183582 
L 213.414632 92.469385 
L 210.996626 88.88645 
L 208.477263 85.440498 
L 205.860574 82.137058 
L 203.150743 78.981382 
L 200.352105 75.978559 
L 197.469145 73.133376 
L 194.506465 70.450378 
L 191.468806 67.933882 
L 188.361029 65.58787 
L 185.188105 63.416135 
L 181.955114 61.422136 
L 178.667222 59.609061 
L 175.329694 57.979805 
L 171.947858 56.536981 
L 168.527146 55.282898 
L 165.073004 54.219562 
L 161.590979 53.348667 
L 158.086622 52.671634 
L 154.565555 52.189519 
L 151.033412 51.903105 
L 147.495837 51.812852 
L 143.958488 51.918896 
L 140.427023 52.22107 
L 136.907086 52.718882 
L 133.404334 53.411539 
L 129.924335 54.297932 
L 126.472672 55.376662 
L 123.054876 56.645972 
L 119.676408 58.103867 
L 116.342662 59.747984 
L 113.058997 61.57571 
L 109.830632 63.58411 
L 106.662751 65.769985 
L 103.560433 68.129824 
L 100.52862 70.659864 
L 97.572164 73.35605 
L 94.695826 76.214067 
L 91.904142 79.229348 
L 89.201633 82.397058 
L 86.592608 85.712155 
L 84.081225 89.16931 
L 81.671524 92.76301 
L 79.367377 96.487496 
L 77.17243 100.336812 
L 75.09021 104.304801 
L 73.124045 108.385115 
L 71.277072 112.571228 
L 69.552273 116.85644 
L 67.95239 121.233901 
L 66.479986 125.696604 
L 65.137411 130.237411 
L 63.926804 134.849056 
L 62.85011 139.524164 
L 61.909061 144.255253 
L 61.105164 149.034761 
L 60.439671 153.855037 
L 59.91371 158.70837 
L 59.528065 163.586997 
L 59.28337 168.483112 
L 59.180031 173.388884 
L 59.218215 178.296465 
L 59.397814 183.198003 
L 59.718605 188.085656 
L 60.180013 192.951607 
L 60.78133 197.788069 
L 61.521609 202.587311 
L 62.399657 207.341656 
L 63.414073 212.043486 
L 64.563216 216.685292 
L 65.845262 221.259646 
L 67.258131 225.75923 
L 68.799609 230.176838 
L 70.467178 234.50541 
L 72.258218 238.738018 
L 74.16985 242.867895 
L 76.199014 246.888426 
L 78.342473 250.793188 
L 80.596759 254.575932 
L 82.958301 258.230612 
L 85.423318 261.751365 
L 87.987877 265.13259 
L 90.647833 268.368842 
L 93.398953 271.454957 
L 96.236882 274.386004 
L 99.157023 277.15729 
L 102.154707 279.764384 
L 105.22517 282.203105 
L 108.363486 284.469545 
L 111.564623 286.560088 
L 114.823463 288.4714 
L 118.134802 290.20043 
L 121.493342 291.744376 
L 124.893705 293.100804 
L 128.33045 294.267518 
L 131.798085 295.24266 
L 135.291058 296.02465 
L 138.803785 296.612287 
L 142.330646 297.004599 
L 145.865998 297.200959 
L 149.404176 297.201042 
L 152.939528 297.004871 
L 156.466397 296.612757 
L 159.97914 296.025319 
L 163.472142 295.243496 
L 166.9398 294.268522 
L 170.37659 293.101984 
L 173.776987 291.745755 
L 177.135576 290.201976 
L 180.446971 288.473145 
L 183.705868 286.562011 
L 186.907061 284.471635 
L 190.045438 282.205352 
L 193.115965 279.766788 
L 196.113735 277.159872 
L 199.033948 274.388742 
L 201.871945 271.457852 
L 204.623174 268.371883 
L 207.283236 265.135777 
L 209.847875 261.754688 
L 212.312986 258.234061 
L 214.674633 254.579495 
L 216.929026 250.796867 
L 219.072567 246.892204 
L 221.101826 242.871757 
L 223.013558 238.741974 
L 224.804701 234.509449 
L 226.472389 230.180945 
L 228.013955 225.763405 
L 229.426934 221.263889 
L 230.709065 216.689587 
L 231.858295 212.047828 
L 232.872787 207.346035 
L 233.750919 202.591729 
L 234.491286 197.79251 
L 235.092703 192.956069 
L 235.554207 188.090132 
L 236.097829 178.303532 
L 236.701925 168.5229 
L 237.184775 163.660688 
L 237.804269 158.828538 
L 238.561725 154.034415 
L 239.45656 149.286079 
L 240.487509 144.591157 
L 241.652969 139.957173 
L 242.951083 135.391535 
L 244.379779 130.901558 
L 245.936774 126.494422 
L 247.619577 122.177178 
L 249.425499 117.956724 
L 251.351649 113.839827 
L 253.394946 109.833071 
L 255.552121 105.942861 
L 257.819721 102.175423 
L 260.194119 98.536779 
L 262.671519 95.032758 
L 265.247957 91.668954 
L 267.919307 88.450767 
L 270.681298 85.383327 
L 273.529515 82.471546 
L 276.459394 79.720095 
L 279.466251 77.13336 
L 282.545284 74.715498 
L 285.691553 72.470357 
L 288.900039 70.401531 
L 292.165592 68.512333 
L 295.483 66.805783 
L 298.846949 65.28463 
L 302.25207 63.951298 
L 305.692906 62.80791 
L 309.163946 61.856293 
L 312.659662 61.097984 
L 316.174431 60.534175 
L 319.70264 60.165795 
L 323.238648 59.99341 
L 326.776811 60.017311 
L 330.311425 60.237446 
L 333.836885 60.653481 
L 337.347525 61.264726 
L 340.837748 62.070231 
L 344.301955 63.068698 
L 347.734594 64.25853 
L 351.130172 65.637814 
L 354.483288 67.204344 
L 357.788561 68.955634 
L 361.040704 70.888851 
L 364.23451 73.000922 
L 367.36487 75.288473 
L 370.426774 77.747845 
L 373.415341 80.375077 
L 376.325764 83.165979 
L 379.153401 86.116099 
L 381.893732 89.220702 
L 384.542357 92.474835 
L 387.095056 95.873278 
L 389.547732 99.410595 
L 391.896497 103.081134 
L 394.137538 106.879022 
L 396.267299 110.798174 
L 398.28239 114.832333 
L 400.179556 118.975038 
L 401.955769 123.219659 
L 403.60821 127.559419 
L 405.134197 131.987361 
L 406.53135 136.496413 
L 407.797378 141.079352 
L 408.930277 145.728853 
L 409.928209 150.437474 
L 410.789622 155.197684 
L 411.513099 160.001865 
L 412.097525 164.842336 
L 412.541921 169.71135 
L 412.845593 174.601122 
L 413.00806 179.503827 
L 413.029065 184.411623 
L 412.908564 189.316656 
L 412.646751 194.211085 
L 412.244049 199.087075 
L 411.701076 203.936828 
L 411.018751 208.752584 
L 410.198129 213.52664 
L 409.240535 218.251357 
L 408.147506 222.919188 
L 406.920777 227.522642 
L 405.562319 232.054378 
L 404.074319 236.507127 
L 402.459127 240.873782 
L 400.71935 245.147347 
L 398.85776 249.321002 
L 396.877327 253.388059 
L 394.781258 257.342003 
L 392.57287 261.176509 
L 390.255704 264.88546 
L 387.833466 268.462909 
L 385.310029 271.903149 
L 382.689431 275.200643 
L 379.975832 278.350153 
L 377.173675 281.346632 
L 374.287332 284.185273 
L 371.321473 286.86153 
L 368.28083 289.37115 
L 365.170285 291.710097 
L 361.994787 293.874632 
L 358.759431 295.861283 
L 355.469391 297.666896 
L 352.129927 299.288575 
L 348.746389 300.723708 
L 345.324177 301.970016 
L 341.86877 303.025513 
L 338.385705 303.888487 
L 334.880549 304.557567 
L 331.358909 305.031687 
L 327.826412 305.310086 
L 324.288709 305.392312 
L 320.751466 305.278242 
L 317.220348 304.968063 
L 313.700998 304.462266 
L 310.199029 303.761646 
L 306.720078 302.867341 
L 303.269688 301.780784 
L 299.853384 300.503698 
L 296.476626 299.038133 
L 293.14482 297.386429 
L 289.863295 295.551251 
L 286.637299 293.535504 
L 283.471999 291.342418 
L 280.372446 288.975535 
L 277.343613 286.438608 
L 274.390336 283.735702 
L 271.517343 280.871153 
L 268.729227 277.849529 
L 266.030455 274.675658 
L 263.42534 271.35463 
L 260.918044 267.891753 
L 258.512589 264.292556 
L 256.212815 260.562839 
L 254.022406 256.708529 
L 251.94486 252.7358 
L 249.983508 248.651013 
L 248.141483 244.460694 
L 246.421734 240.171552 
L 244.827011 235.790449 
L 243.359863 231.324391 
L 242.02264 226.780522 
L 240.81748 222.16612 
L 239.746312 217.488549 
L 238.810848 212.755315 
L 238.012586 207.973972 
L 237.352802 203.152173 
L 236.832553 198.297638 
L 236.45267 193.418124 
L 236.213761 188.521442 
L 236.095406 183.615775 
L 236.095406 183.615775 
" style="fill:none;stroke:#1f77b4;stroke-linecap:square;stroke-width:1.5;"/>
   </g>
   <g id="patch_3">
    <path d="M 57.6 307.584 
L 57.6 41.472 
" style="fill:none;stroke:#000000;stroke-linecap:square;stroke-linejoin:miter;stroke-width:0.8;"/>
   </g>
   <g id="patch_4">
    <path d="M 414.72 307.584 
L 414.72 41.472 
" style="fill:none;stroke:#000000;stroke-linecap:square;stroke-linejoin:miter;stroke-width:0.8;"/>
   </g>
   <g id="patch_5">
    <path d="M 57.6 307.584 
L 414.72 307.584 
" style="fill:none;stroke:#000000;stroke-linecap:square;stroke-linejoin:miter;stroke-width:0.8;"/>
   </g>
   <g id="patch_6">
    <path d="M 57.6 41.472 
L 414.72 41.472 
" style="fill:none;stroke:#000000;stroke-linecap:square;stroke-linejoin:miter;stroke-width:0.8;"/>
   </g>
   <g id="text_12">
    <!-- Simulated Robot Path -->
    <defs>
     <path d="M 53.515625 70.515625 
L 53.515625 60.890625 
Q 47.90625 63.578125 42.921875 64.890625 
Q 37.9375 66.21875 33.296875 66.21875 
Q 25.25 66.21875 20.875 63.09375 
Q 16.5 59.96875 16.5 54.203125 
Q 16.5 49.359375 19.40625 46.890625 
Q 22.3125 44.4375 30.421875 42.921875 
L 36.375 41.703125 
Q 47.40625 39.59375 52.65625 34.296875 
Q 57.90625 29 57.90625 20.125 
Q 57.90625 9.515625 50.796875 4.046875 
Q 43.703125 -1.421875 29.984375 -1.421875 
Q 24.8125 -1.421875 18.96875 -0.25 
Q 13.140625 0.921875 6.890625 3.21875 
L 6.890625 13.375 
Q 12.890625 10.015625 18.65625 8.296875 
Q 24.421875 6.59375 29.984375 6.59375 
Q 38.421875 6.59375 43.015625 9.90625 
Q 47.609375 13.234375 47.609375 19.390625 
Q 47.609375 24.75 44.3125 27.78125 
Q 41.015625 30.8125 33.5 32.328125 
L 27.484375 33.5 
Q 16.453125 35.6875 11.515625 40.375 
Q 6.59375 45.0625 6.59375 53.421875 
Q 6.59375 63.09375 13.40625 68.65625 
Q 20.21875 74.21875 32.171875 74.21875 
Q 37.3125 74.21875 42.625 73.28125 
Q 47.953125 72.359375 53.515625 70.515625 
z
" id="DejaVuSans-53"/>
     <path d="M 9.421875 54.6875 
L 18.40625 54.6875 
L 18.40625 0 
L 9.421875 0 
z
M 9.421875 75.984375 
L 18.40625 75.984375 
L 18.40625 64.59375 
L 9.421875 64.59375 
z
" id="DejaVuSans-69"/>
     <path d="M 52 44.1875 
Q 55.375 50.25 60.0625 53.125 
Q 64.75 56 71.09375 56 
Q 79.640625 56 84.28125 50.015625 
Q 88.921875 44.046875 88.921875 33.015625 
L 88.921875 0 
L 79.890625 0 
L 79.890625 32.71875 
Q 79.890625 40.578125 77.09375 44.375 
Q 74.3125 48.1875 68.609375 48.1875 
Q 61.625 48.1875 57.5625 43.546875 
Q 53.515625 38.921875 53.515625 30.90625 
L 53.515625 0 
L 44.484375 0 
L 44.484375 32.71875 
Q 44.484375 40.625 41.703125 44.40625 
Q 38.921875 48.1875 33.109375 48.1875 
Q 26.21875 48.1875 22.15625 43.53125 
Q 18.109375 38.875 18.109375 30.90625 
L 18.109375 0 
L 9.078125 0 
L 9.078125 54.6875 
L 18.109375 54.6875 
L 18.109375 46.1875 
Q 21.1875 51.21875 25.484375 53.609375 
Q 29.78125 56 35.6875 56 
Q 41.65625 56 45.828125 52.96875 
Q 50 49.953125 52 44.1875 
z
" id="DejaVuSans-6d"/>
     <path d="M 8.5 21.578125 
L 8.5 54.6875 
L 17.484375 54.6875 
L 17.484375 21.921875 
Q 17.484375 14.15625 20.5 10.265625 
Q 23.53125 6.390625 29.59375 6.390625 
Q 36.859375 6.390625 41.078125 11.03125 
Q 45.3125 15.671875 45.3125 23.6875 
L 45.3125 54.6875 
L 54.296875 54.6875 
L 54.296875 0 
L 45.3125 0 
L 45.3125 8.40625 
Q 42.046875 3.421875 37.71875 1 
Q 33.40625 -1.421875 27.6875 -1.421875 
Q 18.265625 -1.421875 13.375 4.4375 
Q 8.5 10.296875 8.5 21.578125 
z
M 31.109375 56 
z
" id="DejaVuSans-75"/>
     <path d="M 9.421875 75.984375 
L 18.40625 75.984375 
L 18.40625 0 
L 9.421875 0 
z
" id="DejaVuSans-6c"/>
     <path d="M 34.28125 27.484375 
Q 23.390625 27.484375 19.1875 25 
Q 14.984375 22.515625 14.984375 16.5 
Q 14.984375 11.71875 18.140625 8.90625 
Q 21.296875 6.109375 26.703125 6.109375 
Q 34.1875 6.109375 38.703125 11.40625 
Q 43.21875 16.703125 43.21875 25.484375 
L 43.21875 27.484375 
z
M 52.203125 31.203125 
L 52.203125 0 
L 43.21875 0 
L 43.21875 8.296875 
Q 40.140625 3.328125 35.546875 0.953125 
Q 30.953125 -1.421875 24.3125 -1.421875 
Q 15.921875 -1.421875 10.953125 3.296875 
Q 6 8.015625 6 15.921875 
Q 6 25.140625 12.171875 29.828125 
Q 18.359375 34.515625 30.609375 34.515625 
L 43.21875 34.515625 
L 43.21875 35.40625 
Q 43.21875 41.609375 39.140625 45 
Q 35.0625 48.390625 27.6875 48.390625 
Q 23 48.390625 18.546875 47.265625 
Q 14.109375 46.140625 10.015625 43.890625 
L 10.015625 52.203125 
Q 14.9375 54.109375 19.578125 55.046875 
Q 24.21875 56 28.609375 56 
Q 40.484375 56 46.34375 49.84375 
Q 52.203125 43.703125 52.203125 31.203125 
z
" id="DejaVuSans-61"/>
     <path d="M 18.3125 70.21875 
L 18.3125 54.6875 
L 36.8125 54.6875 
L 36.8125 47.703125 
L 18.3125 47.703125 
L 18.3125 18.015625 
Q 18.3125 11.328125 20.140625 9.421875 
Q 21.96875 7.515625 27.59375 7.515625 
L 36.8125 7.515625 
L 36.8125 0 
L 27.59375 0 
Q 17.1875 0 13.234375 3.875 
Q 9.28125 7.765625 9.28125 18.015625 
L 9.28125 47.703125 
L 2.6875 47.703125 
L 2.6875 54.6875 
L 9.28125 54.6875 
L 9.28125 70.21875 
z
" id="DejaVuSans-74"/>
     <path d="M 56.203125 29.59375 
L 56.203125 25.203125 
L 14.890625 25.203125 
Q 15.484375 15.921875 20.484375 11.0625 
Q 25.484375 6.203125 34.421875 6.203125 
Q 39.59375 6.203125 44.453125 7.46875 
Q 49.3125 8.734375 54.109375 11.28125 
L 54.109375 2.78125 
Q 49.265625 0.734375 44.1875 -0.34375 
Q 39.109375 -1.421875 33.890625 -1.421875 
Q 20.796875 -1.421875 13.15625 6.1875 
Q 5.515625 13.8125 5.515625 26.8125 
Q 5.515625 40.234375 12.765625 48.109375 
Q 20.015625 56 32.328125 56 
Q 43.359375 56 49.78125 48.890625 
Q 56.203125 41.796875 56.203125 29.59375 
z
M 47.21875 32.234375 
Q 47.125 39.59375 43.09375 43.984375 
Q 39.0625 48.390625 32.421875 48.390625 
Q 24.90625 48.390625 20.390625 44.140625 
Q 15.875 39.890625 15.1875 32.171875 
z
" id="DejaVuSans-65"/>
     <path d="M 45.40625 46.390625 
L 45.40625 75.984375 
L 54.390625 75.984375 
L 54.390625 0 
L 45.40625 0 
L 45.40625 8.203125 
Q 42.578125 3.328125 38.25 0.953125 
Q 33.9375 -1.421875 27.875 -1.421875 
Q 17.96875 -1.421875 11.734375 6.484375 
Q 5.515625 14.40625 5.515625 27.296875 
Q 5.515625 40.1875 11.734375 48.09375 
Q 17.96875 56 27.875 56 
Q 33.9375 56 38.25 53.625 
Q 42.578125 51.265625 45.40625 46.390625 
z
M 14.796875 27.296875 
Q 14.796875 17.390625 18.875 11.75 
Q 22.953125 6.109375 30.078125 6.109375 
Q 37.203125 6.109375 41.296875 11.75 
Q 45.40625 17.390625 45.40625 27.296875 
Q 45.40625 37.203125 41.296875 42.84375 
Q 37.203125 48.484375 30.078125 48.484375 
Q 22.953125 48.484375 18.875 42.84375 
Q 14.796875 37.203125 14.796875 27.296875 
z
" id="DejaVuSans-64"/>
     <path id="DejaVuSans-20"/>
     <path d="M 44.390625 34.1875 
Q 47.5625 33.109375 50.5625 29.59375 
Q 53.5625 26.078125 56.59375 19.921875 
L 66.609375 0 
L 56 0 
L 46.6875 18.703125 
Q 43.0625 26.03125 39.671875 28.421875 
Q 36.28125 30.8125 30.421875 30.8125 
L 19.671875 30.8125 
L 19.671875 0 
L 9.8125 0 
L 9.8125 72.90625 
L 32.078125 72.90625 
Q 44.578125 72.90625 50.734375 67.671875 
Q 56.890625 62.453125 56.890625 51.90625 
Q 56.890625 45.015625 53.6875 40.46875 
Q 50.484375 35.9375 44.390625 34.1875 
z
M 19.671875 64.796875 
L 19.671875 38.921875 
L 32.078125 38.921875 
Q 39.203125 38.921875 42.84375 42.21875 
Q 46.484375 45.515625 46.484375 51.90625 
Q 46.484375 58.296875 42.84375 61.546875 
Q 39.203125 64.796875 32.078125 64.796875 
z
" id="DejaVuSans-52"/>
     <path d="M 30.609375 48.390625 
Q 23.390625 48.390625 19.1875 42.75 
Q 14.984375 37.109375 14.984375 27.296875 
Q 14.984375 17.484375 19.15625 11.84375 
Q 23.34375 6.203125 30.609375 6.203125 
Q 37.796875 6.203125 41.984375 11.859375 
Q 46.1875 17.53125 46.1875 27.296875 
Q 46.1875 37.015625 41.984375 42.703125 
Q 37.796875 48.390625 30.609375 48.390625 
z
M 30.609375 56 
Q 42.328125 56 49.015625 48.375 
Q 55.71875 40.765625 55.71875 27.296875 
Q 55.71875 13.875 49.015625 6.21875 
Q 42.328125 -1.421875 30.609375 -1.421875 
Q 18.84375 -1.421875 12.171875 6.21875 
Q 5.515625 13.875 5.515625 27.296875 
Q 5.515625 40.765625 12.171875 48.375 
Q 18.84375 56 30.609375 56 
z
" id="DejaVuSans-6f"/>
     <path d="M 48.6875 27.296875 
Q 48.6875 37.203125 44.609375 42.84375 
Q 40.53125 48.484375 33.40625 48.484375 
Q 26.265625 48.484375 22.1875 42.84375 
Q 18.109375 37.203125 18.109375 27.296875 
Q 18.109375 17.390625 22.1875 11.75 
Q 26.265625 6.109375 33.40625 6.109375 
Q 40.53125 6.109375 44.609375 11.75 
Q 48.6875 17.390625 48.6875 27.296875 
z
M 18.109375 46.390625 
Q 20.953125 51.265625 25.265625 53.625 
Q 29.59375 56 35.59375 56 
Q 45.5625 56 51.78125 48.09375 
Q 58.015625 40.1875 58.015625 27.296875 
Q 58.015625 14.40625 51.78125 6.484375 
Q 45.5625 -1.421875 35.59375 -1.421875 
Q 29.59375 -1.421875 25.265625 0.953125 
Q 20.953125 3.328125 18.109375 8.203125 
L 18.109375 0 
L 9.078125 0 
L 9.078125 75.984375 
L 18.109375 75.984375 
z
" id="DejaVuSans-62"/>
     <path d="M 19.671875 64.796875 
L 19.671875 37.40625 
L 32.078125 37.40625 
Q 38.96875 37.40625 42.71875 40.96875 
Q 46.484375 44.53125 46.484375 51.125 
Q 46.484375 57.671875 42.71875 61.234375 
Q 38.96875 64.796875 32.078125 64.796875 
z
M 9.8125 72.90625 
L 32.078125 72.90625 
Q 44.34375 72.90625 50.609375 67.359375 
Q 56.890625 61.8125 56.890625 51.125 
Q 56.890625 40.328125 50.609375 34.8125 
Q 44.34375 29.296875 32.078125 29.296875 
L 19.671875 29.296875 
L 19.671875 0 
L 9.8125 0 
z
" id="DejaVuSans-50"/>
     <path d="M 54.890625 33.015625 
L 54.890625 0 
L 45.90625 0 
L 45.90625 32.71875 
Q 45.90625 40.484375 42.875 44.328125 
Q 39.84375 48.1875 33.796875 48.1875 
Q 26.515625 48.1875 22.3125 43.546875 
Q 18.109375 38.921875 18.109375 30.90625 
L 18.109375 0 
L 9.078125 0 
L 9.078125 75.984375 
L 18.109375 75.984375 
L 18.109375 46.1875 
Q 21.34375 51.125 25.703125 53.5625 
Q 30.078125 56 35.796875 56 
Q 45.21875 56 50.046875 50.171875 
Q 54.890625 44.34375 54.890625 33.015625 
z
" id="DejaVuSans-68"/>
    </defs>
    <g transform="translate(170.911875 35.472)scale(0.12 -0.12)">
     <use xlink:href="#DejaVuSans-53"/>
     <use x="63.476562" xlink:href="#DejaVuSans-69"/>
     <use x="91.259766" xlink:href="#DejaVuSans-6d"/>
     <use x="188.671875" xlink:href="#DejaVuSans-75"/>
     <use x="252.050781" xlink:href="#DejaVuSans-6c"/>
     <use x="279.833984" xlink:href="#DejaVuSans-61"/>
     <use x="341.113281" xlink:href="#DejaVuSans-74"/>
     <use x="380.322266" xlink:href="#DejaVuSans-65"/>
     <use x="441.845703" xlink:href="#DejaVuSans-64"/>
     <use x="505.322266" xlink:href="#DejaVuSans-20"/>
     <use x="537.109375" xlink:href="#DejaVuSans-52"/>
     <use x="606.529297" xlink:href="#DejaVuSans-6f"/>
     <use x="667.710938" xlink:href="#DejaVuSans-62"/>
     <use x="731.1875" xlink:href="#DejaVuSans-6f"/>
     <use x="792.369141" xlink:href="#DejaVuSans-74"/>
     <use x="831.578125" xlink:href="#DejaVuSans-20"/>
     <use x="863.365234" xlink:href="#DejaVuSans-50"/>
     <use x="923.605469" xlink:href="#DejaVuSans-61"/>
     <use x="984.884766" xlink:href="#DejaVuSans-74"/>
     <use x="1024.09375" xlink:href="#DejaVuSans-68"/>
    </g>
   </g>
  </g>
 </g>
 <defs>
  <clipPath id="p55c0b95f1f">
   <rect height="266.112" width="357.12" x="57.6" y="41.472"/>
  </clipPath>
 </defs>
</svg>
