<?xml version="1.0" encoding="utf-8" standalone="no"?>
<!DOCTYPE svg PUBLIC "-//W3C//DTD SVG 1.1//EN"
  "http://www.w3.org/Graphics/SVG/1.1/DTD/svg11.dtd">
<!-- Created with matplotlib (http://matplotlib.org/) -->
<svg height="345.6pt" version="1.1" viewBox="0 0 460.8 345.6" width="460.8pt" xmlns="http://www.w3.org/2000/svg" xmlns:xlink="http://www.w3.org/1999/xlink">
 <defs>
  <style type="text/css">
*{stroke-linecap:butt;stroke-linejoin:round;}
  </style>
 </defs>
 <g id="figure_1">
  <g id="patch_1">
   <path d="M 0 345.6 
L 460.8 345.6 
L 460.8 0 
L 0 0 
z
" style="fill:#ffffff;"/>
  </g>
  <g id="axes_1">
   <g id="patch_2">
    <path d="M 57.6 307.584 
L 414.72 307.584 
L 414.72 41.472 
L 57.6 41.472 
z
" style="fill:#ffffff;"/>
   </g>
   <g id="matplotlib.axis_1">
    <g id="xtick_1">
     <g id="line2d_1">
      <defs>
       <path d="M 0 0 
L 0 3.5 
" id="mee7912d1f5" style="stroke:#000000;stroke-width:0.8;"/>
      </defs>
      <g>
       <use style="stroke:#000000;stroke-width:0.8;" x="98.53089" xlink:href="#mee7912d1f5" y="307.584"/>
      </g>
     </g>
     <g id="text_1">
      <!-- −7.5 -->
      <defs>
       <path d="M 10.59375 35.5 
L 73.1875 35.5 
L 73.1875 27.203125 
L 10.59375 27.203125 
z
" id="DejaVuSans-2212"/>
       <path d="M 8.203125 72.90625 
L 55.078125 72.90625 
L 55.078125 68.703125 
L 28.609375 0 
L 18.3125 0 
L 43.21875 64.59375 
L 8.203125 64.59375 
z
" id="DejaVuSans-37"/>
       <path d="M 10.6875 12.40625 
L 21 12.40625 
L 21 0 
L 10.6875 0 
z
" id="DejaVuSans-2e"/>
       <path d="M 10.796875 72.90625 
L 49.515625 72.90625 
L 49.515625 64.59375 
L 19.828125 64.59375 
L 19.828125 46.734375 
Q 21.96875 47.46875 24.109375 47.828125 
Q 26.265625 48.1875 28.421875 48.1875 
Q 40.625 48.1875 47.75 41.5 
Q 54.890625 34.8125 54.890625 23.390625 
Q 54.890625 11.625 47.5625 5.09375 
Q 40.234375 -1.421875 26.90625 -1.421875 
Q 22.3125 -1.421875 17.546875 -0.640625 
Q 12.796875 0.140625 7.71875 1.703125 
L 7.71875 11.625 
Q 12.109375 9.234375 16.796875 8.0625 
Q 21.484375 6.890625 26.703125 6.890625 
Q 35.15625 6.890625 40.078125 11.328125 
Q 45.015625 15.765625 45.015625 23.390625 
Q 45.015625 31 40.078125 35.4375 
Q 35.15625 39.890625 26.703125 39.890625 
Q 22.75 39.890625 18.8125 39.015625 
Q 14.890625 38.140625 10.796875 36.28125 
z
" id="DejaVuSans-35"/>
      </defs>
      <g transform="translate(86.389484 322.182437)scale(0.1 -0.1)">
       <use xlink:href="#DejaVuSans-2212"/>
       <use x="83.789062" xlink:href="#DejaVuSans-37"/>
       <use x="147.412109" xlink:href="#DejaVuSans-2e"/>
       <use x="179.199219" xlink:href="#DejaVuSans-35"/>
      </g>
     </g>
    </g>
    <g id="xtick_2">
     <g id="line2d_2">
      <g>
       <use style="stroke:#000000;stroke-width:0.8;" x="143.565312" xlink:href="#mee7912d1f5" y="307.584"/>
      </g>
     </g>
     <g id="text_2">
      <!-- −5.0 -->
      <defs>
       <path d="M 31.78125 66.40625 
Q 24.171875 66.40625 20.328125 58.90625 
Q 16.5 51.421875 16.5 36.375 
Q 16.5 21.390625 20.328125 13.890625 
Q 24.171875 6.390625 31.78125 6.390625 
Q 39.453125 6.390625 43.28125 13.890625 
Q 47.125 21.390625 47.125 36.375 
Q 47.125 51.421875 43.28125 58.90625 
Q 39.453125 66.40625 31.78125 66.40625 
z
M 31.78125 74.21875 
Q 44.046875 74.21875 50.515625 64.515625 
Q 56.984375 54.828125 56.984375 36.375 
Q 56.984375 17.96875 50.515625 8.265625 
Q 44.046875 -1.421875 31.78125 -1.421875 
Q 19.53125 -1.421875 13.0625 8.265625 
Q 6.59375 17.96875 6.59375 36.375 
Q 6.59375 54.828125 13.0625 64.515625 
Q 19.53125 74.21875 31.78125 74.21875 
z
" id="DejaVuSans-30"/>
      </defs>
      <g transform="translate(131.423906 322.182437)scale(0.1 -0.1)">
       <use xlink:href="#DejaVuSans-2212"/>
       <use x="83.789062" xlink:href="#DejaVuSans-35"/>
       <use x="147.412109" xlink:href="#DejaVuSans-2e"/>
       <use x="179.199219" xlink:href="#DejaVuSans-30"/>
      </g>
     </g>
    </g>
    <g id="xtick_3">
     <g id="line2d_3">
      <g>
       <use style="stroke:#000000;stroke-width:0.8;" x="188.599735" xlink:href="#mee7912d1f5" y="307.584"/>
      </g>
     </g>
     <g id="text_3">
      <!-- −2.5 -->
      <defs>
       <path d="M 19.1875 8.296875 
L 53.609375 8.296875 
L 53.609375 0 
L 7.328125 0 
L 7.328125 8.296875 
Q 12.9375 14.109375 22.625 23.890625 
Q 32.328125 33.6875 34.8125 36.53125 
Q 39.546875 41.84375 41.421875 45.53125 
Q 43.3125 49.21875 43.3125 52.78125 
Q 43.3125 58.59375 39.234375 62.25 
Q 35.15625 65.921875 28.609375 65.921875 
Q 23.96875 65.921875 18.8125 64.3125 
Q 13.671875 62.703125 7.8125 59.421875 
L 7.8125 69.390625 
Q 13.765625 71.78125 18.9375 73 
Q 24.125 74.21875 28.421875 74.21875 
Q 39.75 74.21875 46.484375 68.546875 
Q 53.21875 62.890625 53.21875 53.421875 
Q 53.21875 48.921875 51.53125 44.890625 
Q 49.859375 40.875 45.40625 35.40625 
Q 44.1875 33.984375 37.640625 27.21875 
Q 31.109375 20.453125 19.1875 8.296875 
z
" id="DejaVuSans-32"/>
      </defs>
      <g transform="translate(176.458329 322.182437)scale(0.1 -0.1)">
       <use xlink:href="#DejaVuSans-2212"/>
       <use x="83.789062" xlink:href="#DejaVuSans-32"/>
       <use x="147.412109" xlink:href="#DejaVuSans-2e"/>
       <use x="179.199219" xlink:href="#DejaVuSans-35"/>
      </g>
     </g>
    </g>
    <g id="xtick_4">
     <g id="line2d_4">
      <g>
       <use style="stroke:#000000;stroke-width:0.8;" x="233.634158" xlink:href="#mee7912d1f5" y="307.584"/>
      </g>
     </g>
     <g id="text_4">
      <!-- 0.0 -->
      <g transform="translate(225.682595 322.182437)scale(0.1 -0.1)">
       <use xlink:href="#DejaVuSans-30"/>
       <use x="63.623047" xlink:href="#DejaVuSans-2e"/>
       <use x="95.410156" xlink:href="#DejaVuSans-30"/>
      </g>
     </g>
    </g>
    <g id="xtick_5">
     <g id="line2d_5">
      <g>
       <use style="stroke:#000000;stroke-width:0.8;" x="278.668581" xlink:href="#mee7912d1f5" y="307.584"/>
      </g>
     </g>
     <g id="text_5">
      <!-- 2.5 -->
      <g transform="translate(270.717018 322.182437)scale(0.1 -0.1)">
       <use xlink:href="#DejaVuSans-32"/>
       <use x="63.623047" xlink:href="#DejaVuSans-2e"/>
       <use x="95.410156" xlink:href="#DejaVuSans-35"/>
      </g>
     </g>
    </g>
    <g id="xtick_6">
     <g id="line2d_6">
      <g>
       <use style="stroke:#000000;stroke-width:0.8;" x="323.703003" xlink:href="#mee7912d1f5" y="307.584"/>
      </g>
     </g>
     <g id="text_6">
      <!-- 5.0 -->
      <g transform="translate(315.751441 322.182437)scale(0.1 -0.1)">
       <use xlink:href="#DejaVuSans-35"/>
       <use x="63.623047" xlink:href="#DejaVuSans-2e"/>
       <use x="95.410156" xlink:href="#DejaVuSans-30"/>
      </g>
     </g>
    </g>
    <g id="xtick_7">
     <g id="line2d_7">
      <g>
       <use style="stroke:#000000;stroke-width:0.8;" x="368.737426" xlink:href="#mee7912d1f5" y="307.584"/>
      </g>
     </g>
     <g id="text_7">
      <!-- 7.5 -->
      <g transform="translate(360.785863 322.182437)scale(0.1 -0.1)">
       <use xlink:href="#DejaVuSans-37"/>
       <use x="63.623047" xlink:href="#DejaVuSans-2e"/>
       <use x="95.410156" xlink:href="#DejaVuSans-35"/>
      </g>
     </g>
    </g>
    <g id="xtick_8">
     <g id="line2d_8">
      <g>
       <use style="stroke:#000000;stroke-width:0.8;" x="413.771849" xlink:href="#mee7912d1f5" y="307.584"/>
      </g>
     </g>
     <g id="text_8">
      <!-- 10.0 -->
      <defs>
       <path d="M 12.40625 8.296875 
L 28.515625 8.296875 
L 28.515625 63.921875 
L 10.984375 60.40625 
L 10.984375 69.390625 
L 28.421875 72.90625 
L 38.28125 72.90625 
L 38.28125 8.296875 
L 54.390625 8.296875 
L 54.390625 0 
L 12.40625 0 
z
" id="DejaVuSans-31"/>
      </defs>
      <g transform="translate(402.639036 322.182437)scale(0.1 -0.1)">
       <use xlink:href="#DejaVuSans-31"/>
       <use x="63.623047" xlink:href="#DejaVuSans-30"/>
       <use x="127.246094" xlink:href="#DejaVuSans-2e"/>
       <use x="159.033203" xlink:href="#DejaVuSans-30"/>
      </g>
     </g>
    </g>
   </g>
   <g id="matplotlib.axis_2">
    <g id="ytick_1">
     <g id="line2d_9">
      <defs>
       <path d="M 0 0 
L -3.5 0 
" id="m0a26381f3b" style="stroke:#000000;stroke-width:0.8;"/>
      </defs>
      <g>
       <use style="stroke:#000000;stroke-width:0.8;" x="57.6" xlink:href="#m0a26381f3b" y="275.70124"/>
      </g>
     </g>
     <g id="text_9">
      <!-- −7.5 -->
      <g transform="translate(26.317187 279.500458)scale(0.1 -0.1)">
       <use xlink:href="#DejaVuSans-2212"/>
       <use x="83.789062" xlink:href="#DejaVuSans-37"/>
       <use x="147.412109" xlink:href="#DejaVuSans-2e"/>
       <use x="179.199219" xlink:href="#DejaVuSans-35"/>
      </g>
     </g>
    </g>
    <g id="ytick_2">
     <g id="line2d_10">
      <g>
       <use style="stroke:#000000;stroke-width:0.8;" x="57.6" xlink:href="#m0a26381f3b" y="241.289483"/>
      </g>
     </g>
     <g id="text_10">
      <!-- −5.0 -->
      <g transform="translate(26.317187 245.088702)scale(0.1 -0.1)">
       <use xlink:href="#DejaVuSans-2212"/>
       <use x="83.789062" xlink:href="#DejaVuSans-35"/>
       <use x="147.412109" xlink:href="#DejaVuSans-2e"/>
       <use x="179.199219" xlink:href="#DejaVuSans-30"/>
      </g>
     </g>
    </g>
    <g id="ytick_3">
     <g id="line2d_11">
      <g>
       <use style="stroke:#000000;stroke-width:0.8;" x="57.6" xlink:href="#m0a26381f3b" y="206.877727"/>
      </g>
     </g>
     <g id="text_11">
      <!-- −2.5 -->
      <g transform="translate(26.317187 210.676946)scale(0.1 -0.1)">
       <use xlink:href="#DejaVuSans-2212"/>
       <use x="83.789062" xlink:href="#DejaVuSans-32"/>
       <use x="147.412109" xlink:href="#DejaVuSans-2e"/>
       <use x="179.199219" xlink:href="#DejaVuSans-35"/>
      </g>
     </g>
    </g>
    <g id="ytick_4">
     <g id="line2d_12">
      <g>
       <use style="stroke:#000000;stroke-width:0.8;" x="57.6" xlink:href="#m0a26381f3b" y="172.465971"/>
      </g>
     </g>
     <g id="text_12">
      <!-- 0.0 -->
      <g transform="translate(34.696875 176.26519)scale(0.1 -0.1)">
       <use xlink:href="#DejaVuSans-30"/>
       <use x="63.623047" xlink:href="#DejaVuSans-2e"/>
       <use x="95.410156" xlink:href="#DejaVuSans-30"/>
      </g>
     </g>
    </g>
    <g id="ytick_5">
     <g id="line2d_13">
      <g>
       <use style="stroke:#000000;stroke-width:0.8;" x="57.6" xlink:href="#m0a26381f3b" y="138.054215"/>
      </g>
     </g>
     <g id="text_13">
      <!-- 2.5 -->
      <g transform="translate(34.696875 141.853434)scale(0.1 -0.1)">
       <use xlink:href="#DejaVuSans-32"/>
       <use x="63.623047" xlink:href="#DejaVuSans-2e"/>
       <use x="95.410156" xlink:href="#DejaVuSans-35"/>
      </g>
     </g>
    </g>
    <g id="ytick_6">
     <g id="line2d_14">
      <g>
       <use style="stroke:#000000;stroke-width:0.8;" x="57.6" xlink:href="#m0a26381f3b" y="103.642459"/>
      </g>
     </g>
     <g id="text_14">
      <!-- 5.0 -->
      <g transform="translate(34.696875 107.441678)scale(0.1 -0.1)">
       <use xlink:href="#DejaVuSans-35"/>
       <use x="63.623047" xlink:href="#DejaVuSans-2e"/>
       <use x="95.410156" xlink:href="#DejaVuSans-30"/>
      </g>
     </g>
    </g>
    <g id="ytick_7">
     <g id="line2d_15">
      <g>
       <use style="stroke:#000000;stroke-width:0.8;" x="57.6" xlink:href="#m0a26381f3b" y="69.230703"/>
      </g>
     </g>
     <g id="text_15">
      <!-- 7.5 -->
      <g transform="translate(34.696875 73.029922)scale(0.1 -0.1)">
       <use xlink:href="#DejaVuSans-37"/>
       <use x="63.623047" xlink:href="#DejaVuSans-2e"/>
       <use x="95.410156" xlink:href="#DejaVuSans-35"/>
      </g>
     </g>
    </g>
   </g>
   <g id="line2d_16">
    <path clip-path="url(#p67d821877e)" d="M 233.634158 172.465971 
L 233.634158 172.465971 
L 229.073994 169.104516 
L 226.092239 167.07496 
L 222.987029 165.115486 
L 219.779119 163.248069 
L 216.475763 161.479268 
L 213.082472 159.812626 
L 209.604681 158.25096 
L 206.04795 156.796801 
L 202.417966 155.452481 
L 198.720528 154.220156 
L 194.961566 153.101796 
L 191.147077 152.099191 
L 187.283172 151.213945 
L 183.376026 150.447471 
L 179.431894 149.800999 
L 175.457092 149.27556 
L 171.45796 148.871998 
L 167.440914 148.590958 
L 163.412372 148.432887 
L 159.378787 148.398041 
L 155.346597 148.486475 
L 151.322259 148.698045 
L 147.312214 149.032415 
L 143.322879 149.489053 
L 139.360635 150.06722 
L 135.431813 150.766001 
L 131.542702 151.584273 
L 127.699536 152.520724 
L 123.908441 153.573857 
L 120.17548 154.741997 
L 116.50665 156.023262 
L 112.907816 157.415609 
L 109.384726 158.916811 
L 105.942997 160.524462 
L 102.588169 162.235996 
L 99.325594 164.04867 
L 96.160477 165.959586 
L 93.097903 167.965686 
L 90.142768 170.063764 
L 87.299788 172.25046 
L 84.573524 174.522279 
L 81.968322 176.875585 
L 79.488357 179.306614 
L 77.137615 181.811474 
L 74.919823 184.386162 
L 72.838554 187.026556 
L 70.897125 189.728435 
L 69.098645 192.487475 
L 67.445982 195.299262 
L 65.941834 198.1593 
L 64.588554 201.063012 
L 63.388307 204.00576 
L 62.343017 206.982822 
L 61.454351 209.989447 
L 60.723734 213.020816 
L 60.152334 216.072086 
L 59.741097 219.138373 
L 59.490623 222.214777 
L 59.401377 225.296374 
L 59.473478 228.378223 
L 59.70679 231.455412 
L 60.100934 234.523018 
L 60.655309 237.576125 
L 61.369022 240.609844 
L 62.240904 243.61933 
L 63.269616 246.599766 
L 64.453456 249.546381 
L 65.79057 252.454473 
L 67.27881 255.319378 
L 68.915789 258.136514 
L 70.698876 260.901378 
L 72.625222 263.609546 
L 74.691802 266.256686 
L 76.895233 268.838559 
L 79.232008 271.351049 
L 81.698402 273.790113 
L 84.290478 276.151865 
L 87.004064 278.432538 
L 89.834847 280.628449 
L 92.778283 282.736114 
L 95.829656 284.752165 
L 98.984105 286.673361 
L 102.23657 288.496615 
L 105.581846 290.219027 
L 109.01459 291.837854 
L 112.529297 293.350484 
L 116.120365 294.754513 
L 119.782041 296.047684 
L 123.508464 297.227936 
L 127.293667 298.293354 
L 131.131602 299.242268 
L 135.016144 300.073144 
L 138.941048 300.784669 
L 142.900037 301.375675 
L 146.886795 301.845243 
L 150.894951 302.19261 
L 154.918078 302.417227 
L 158.949734 302.518726 
L 162.983487 302.496974 
L 167.012871 302.35196 
L 171.031442 302.083932 
L 175.032768 301.693323 
L 179.010456 301.180778 
L 182.958136 300.547083 
L 186.869495 299.793263 
L 190.738271 298.920524 
L 194.558283 297.930273 
L 198.323408 296.824083 
L 202.027636 295.603727 
L 205.665035 294.271162 
L 209.229778 292.828487 
L 212.716175 291.278065 
L 216.118643 289.622338 
L 219.431736 287.863983 
L 222.650161 286.005798 
L 225.768761 284.050748 
L 228.78255 282.001951 
L 231.686707 279.862716 
L 234.476586 277.636448 
L 237.147727 275.326712 
L 239.695851 272.937196 
L 242.116885 270.471728 
L 244.406955 267.934264 
L 246.562397 265.328834 
L 248.579764 262.659647 
L 250.455827 259.930935 
L 252.187586 257.147083 
L 253.772268 254.312547 
L 255.207338 251.431851 
L 256.490501 248.509607 
L 257.619703 245.550489 
L 258.59314 242.559236 
L 259.409257 239.54062 
L 260.066741 236.499485 
L 260.564547 233.440693 
L 260.901871 230.369142 
L 261.078177 227.289738 
L 261.09319 224.207407 
L 260.946876 221.127087 
L 260.639477 218.053701 
L 260.171479 214.99217 
L 259.543635 211.947385 
L 258.756942 208.92422 
L 257.812669 205.92751 
L 256.71232 202.962055 
L 255.457655 200.032595 
L 254.050682 197.143818 
L 252.493652 194.300341 
L 250.789056 191.50672 
L 248.939624 188.767419 
L 246.948312 186.086821 
L 244.818308 183.469216 
L 242.553017 180.918792 
L 240.156064 178.439628 
L 237.631283 176.035692 
L 229.70756 169.045039 
L 227.205286 166.627084 
L 224.826122 164.137829 
L 222.577604 161.578722 
L 220.464396 158.953176 
L 218.490166 156.265214 
L 216.658153 153.51909 
L 214.971309 150.719186 
L 213.432343 147.869983 
L 212.043712 144.976031 
L 210.807645 142.041961 
L 209.726117 139.07247 
L 208.800859 136.072307 
L 208.033356 133.046271 
L 207.424825 129.999196 
L 206.976253 126.935967 
L 206.688346 123.861479 
L 206.561573 120.780657 
L 206.596132 117.698428 
L 206.791971 114.619719 
L 207.148776 111.549461 
L 207.665971 108.49256 
L 208.342735 105.453899 
L 209.17798 102.438355 
L 210.170371 99.450745 
L 211.318322 96.495841 
L 212.619999 93.578382 
L 214.073314 90.703034 
L 215.675947 87.874393 
L 217.425333 85.096992 
L 219.318672 82.375271 
L 221.352938 79.713579 
L 223.524871 77.116183 
L 225.831003 74.587226 
L 228.267639 72.130755 
L 230.830884 69.750704 
L 233.516635 67.450886 
L 236.320597 65.234982 
L 239.238284 63.106517 
L 242.265028 61.068924 
L 245.395985 59.125426 
L 248.626149 57.279186 
L 251.950353 55.533106 
L 255.363275 53.890007 
L 258.859458 52.352502 
L 262.43331 50.923059 
L 266.07911 49.603975 
L 269.791026 48.39735 
L 273.563125 47.305101 
L 277.389365 46.329001 
L 281.263625 45.470597 
L 285.179708 44.731269 
L 289.131352 44.112184 
L 293.112236 43.614354 
L 297.115989 43.23858 
L 301.136204 42.985438 
L 305.166452 42.855323 
L 309.200282 42.84847 
L 313.231242 42.964894 
L 317.252892 43.204397 
L 321.258788 43.566585 
L 325.242532 44.050921 
L 329.197724 44.656563 
L 333.118067 45.382607 
L 336.997275 46.22787 
L 340.829145 47.190988 
L 344.607545 48.270412 
L 348.326445 49.464448 
L 351.979874 50.771153 
L 355.561992 52.188466 
L 359.067069 53.714091 
L 362.489506 55.345599 
L 365.823822 57.08039 
L 369.064682 58.915669 
L 372.206908 60.848508 
L 375.245457 62.875816 
L 378.175476 64.994357 
L 380.992275 67.20073 
L 383.691378 69.491412 
L 386.268406 71.862747 
L 388.719286 74.310928 
L 391.040103 76.832035 
L 393.227109 79.42204 
L 395.276854 82.076801 
L 397.186003 84.792071 
L 398.951534 87.563498 
L 400.570628 90.386659 
L 402.040676 93.257032 
L 403.359322 96.170027 
L 404.524489 99.120993 
L 405.534286 102.105203 
L 406.387082 105.117866 
L 407.081537 108.154197 
L 407.616551 111.209313 
L 407.991248 114.278331 
L 408.205044 117.35634 
L 408.257578 120.438422 
L 408.148782 123.519651 
L 407.878827 126.595084 
L 407.448143 129.659812 
L 406.857399 132.708926 
L 406.107576 135.737551 
L 405.199857 138.740842 
L 404.135688 141.713995 
L 402.916767 144.652251 
L 401.545037 147.550912 
L 400.022713 150.40534 
L 398.352235 153.210968 
L 396.536266 155.963309 
L 394.577726 158.657956 
L 392.479725 161.290606 
L 390.24563 163.857042 
L 387.879031 166.353159 
L 385.383657 168.774965 
L 382.763578 171.118584 
L 380.022917 173.380267 
L 377.166082 175.556397 
L 374.197668 177.643495 
L 371.122407 179.638219 
L 367.945213 181.53738 
L 364.67117 183.337939 
L 361.30552 185.037016 
L 357.853638 186.631892 
L 354.321065 188.120016 
L 350.713427 189.499009 
L 347.036513 190.766663 
L 343.296191 191.920952 
L 339.498465 192.960026 
L 335.649398 193.882222 
L 331.755141 194.686068 
L 327.821939 195.370279 
L 323.856079 195.933759 
L 319.863892 196.375607 
L 315.851768 196.695113 
L 311.826141 196.891771 
L 307.793446 196.965262 
L 303.760123 196.915472 
L 299.732641 196.742475 
L 295.717424 196.446557 
L 291.720912 196.028185 
L 287.749491 195.488027 
L 283.809515 194.826951 
L 279.907279 194.046015 
L 276.049034 193.146463 
L 272.240957 192.129737 
L 268.489131 190.997467 
L 264.799566 189.751458 
L 261.178156 188.39371 
L 257.6307 186.926389 
L 254.162873 185.351844 
L 250.780217 183.672595 
L 247.488148 181.891328 
L 244.291931 180.010894 
L 241.196682 178.034298 
L 229.224099 169.768968 
L 226.063173 167.853824 
L 222.806178 166.035229 
L 219.457037 164.317178 
L 216.020772 162.702719 
L 212.502794 161.194519 
L 208.908704 159.795014 
L 205.244256 158.506447 
L 201.515303 157.330883 
L 197.727811 156.270203 
L 193.887832 155.326101 
L 190.001525 154.50009 
L 186.0751 153.793491 
L 182.114832 153.207432 
L 178.127068 152.742853 
L 174.118174 152.400496 
L 170.094575 152.180912 
L 166.062708 152.084448 
L 162.029007 152.11126 
L 157.999935 152.261305 
L 153.981945 152.53434 
L 149.981452 152.92993 
L 146.004863 153.447447 
L 142.058553 154.086056 
L 138.148809 154.844742 
L 134.281902 155.722287 
L 130.464007 156.717285 
L 126.701232 157.82815 
L 122.999606 159.053104 
L 119.365048 160.390184 
L 115.803356 161.837253 
L 112.320259 163.391995 
L 108.921298 165.051923 
L 105.611927 166.814383 
L 102.397454 168.676554 
L 99.28299 170.635458 
L 96.273542 172.687962 
L 93.373905 174.83078 
L 90.588742 177.060487 
L 87.922468 179.373513 
L 85.379386 181.76616 
L 82.963552 184.234601 
L 80.678829 186.774888 
L 78.528895 189.382956 
L 76.517134 192.054629 
L 74.646827 194.78564 
L 72.920912 197.571614 
L 71.342189 200.408097 
L 69.913183 203.290549 
L 68.636162 206.214359 
L 67.51317 209.174858 
L 66.546012 212.167299 
L 65.736232 215.186896 
L 65.085104 218.228826 
L 64.593691 221.288221 
L 64.262784 224.360182 
L 64.092915 227.4398 
L 64.084343 230.522138 
L 64.237101 233.60228 
L 64.550897 236.675282 
L 65.025268 239.736246 
L 65.659458 242.780269 
L 66.45247 245.802476 
L 67.402965 248.798034 
L 68.509482 251.762147 
L 69.770251 254.690081 
L 71.183212 257.577151 
L 72.746147 260.418736 
L 74.456549 263.210294 
L 76.31167 265.947354 
L 78.308537 268.62554 
L 80.443954 271.240565 
L 82.714521 273.788249 
L 85.116612 276.264508 
L 87.646345 278.665398 
L 90.299735 280.987067 
L 93.072469 283.225792 
L 95.960158 285.37801 
L 98.958181 287.440256 
L 102.061728 289.409246 
L 105.265833 291.281832 
L 108.565378 293.055007 
L 111.955071 294.725948 
L 115.429518 296.291965 
L 118.983119 297.750577 
L 122.610221 299.09942 
L 126.305018 300.336368 
L 130.061582 301.459426 
L 133.873929 302.466782 
L 137.735923 303.356848 
L 141.641423 304.128206 
L 145.584169 304.779596 
L 149.557845 305.309981 
L 153.556105 305.718534 
L 157.572541 306.004573 
L 161.60074 306.16765 
L 165.634257 306.20753 
L 169.666626 306.124121 
L 173.691402 305.917566 
L 177.702152 305.588183 
L 181.692458 305.136481 
L 185.655934 304.563223 
L 189.586229 303.869328 
L 193.477076 303.055884 
L 197.322238 302.124205 
L 201.115567 301.075775 
L 204.850989 299.912246 
L 208.522531 298.635523 
L 212.12432 297.247627 
L 215.650591 295.750777 
L 219.095708 294.147374 
L 222.454157 292.439979 
L 225.720561 290.631335 
L 228.889701 288.724317 
L 231.956504 286.721996 
L 234.916064 284.62755 
L 237.763645 282.444372 
L 240.494695 280.175907 
L 243.104842 277.825806 
L 245.589909 275.397834 
L 247.945921 272.895859 
L 250.169113 270.323891 
L 252.255923 267.686057 
L 254.203017 264.98656 
L 256.007278 262.229723 
L 257.665816 259.419958 
L 259.175988 256.561761 
L 260.535364 253.659707 
L 261.741778 250.718435 
L 262.793295 247.742646 
L 263.688245 244.737111 
L 264.425182 241.706635 
L 265.002932 238.656067 
L 265.420573 235.590273 
L 265.677437 232.514167 
L 265.773108 229.432698 
L 265.707441 226.350754 
L 265.480537 223.273283 
L 265.092756 220.205207 
L 264.54472 217.151437 
L 263.837301 214.116855 
L 262.97164 211.106316 
L 261.949115 208.124639 
L 260.771369 205.176594 
L 259.440278 202.266893 
L 257.95798 199.400193 
L 256.326838 196.581081 
L 254.549465 193.81407 
L 252.6287 191.103581 
L 250.56762 188.453955 
L 248.369527 185.869426 
L 246.03793 183.354133 
L 243.576563 180.912099 
L 238.316503 176.23797 
L 233.10886 171.52901 
L 230.666855 169.075465 
L 228.352316 166.550934 
L 226.170944 163.958134 
L 224.126786 161.300865 
L 222.223271 158.583286 
L 220.46348 155.809722 
L 218.850241 152.984607 
L 217.386138 150.112456 
L 216.073515 147.197865 
L 214.914471 144.2455 
L 213.910869 141.260075 
L 213.064305 138.246369 
L 212.376138 135.209207 
L 211.847473 132.153452 
L 211.479146 129.083981 
L 211.271753 126.005709 
L 211.225623 122.923565 
L 211.340833 119.842477 
L 211.617198 116.767369 
L 212.054273 113.703169 
L 212.65136 110.654781 
L 213.407504 107.627081 
L 214.321494 104.6249 
L 215.39187 101.653042 
L 216.616918 98.716273 
L 217.99468 95.819299 
L 219.522949 92.966727 
L 221.199283 90.163138 
L 223.020998 87.413023 
L 224.985178 84.720771 
L 227.088686 82.090689 
L 229.328154 79.526991 
L 231.699999 77.033772 
L 234.200427 74.615016 
L 236.825438 72.274615 
L 239.570832 70.016291 
L 242.432219 67.843673 
L 245.405018 65.760215 
L 248.484476 63.769262 
L 251.665665 61.874006 
L 254.943495 60.077478 
L 258.312723 58.382541 
L 261.767957 56.791911 
L 265.303672 55.308135 
L 268.914207 53.933602 
L 272.593789 52.670478 
L 276.336538 51.520799 
L 280.136455 50.486414 
L 283.987467 49.568965 
L 287.883424 48.769922 
L 291.818074 48.090584 
L 295.785128 47.532002 
L 299.778243 47.095082 
L 303.791028 46.780532 
L 307.817067 46.588864 
L 311.8499 46.520367 
L 315.883103 46.575159 
L 319.910224 46.753149 
L 323.924796 47.054034 
L 327.920411 47.477368 
L 331.890677 48.022468 
L 335.829239 48.688429 
L 339.72981 49.474227 
L 343.586117 50.378575 
L 347.392013 51.40003 
L 351.141414 52.536963 
L 354.828325 53.787564 
L 358.446838 55.149822 
L 361.991153 56.621548 
L 365.45561 58.200416 
L 368.834669 59.883881 
L 372.122927 61.66925 
L 375.315119 63.553683 
L 378.406142 65.534141 
L 381.391023 67.607465 
L 384.265046 69.770342 
L 387.023555 72.019313 
L 389.662153 74.350762 
L 392.176649 76.760979 
L 394.563004 79.246105 
L 396.817388 81.802151 
L 398.936193 84.425039 
L 400.916052 87.110589 
L 402.753787 89.854482 
L 404.44646 92.652328 
L 405.991358 95.499649 
L 407.386005 98.391917 
L 408.628187 101.324473 
L 409.715875 104.292641 
L 410.647386 107.291679 
L 411.421192 110.316773 
L 412.03609 113.363094 
L 412.491083 116.425771 
L 412.785415 119.499898 
L 412.918623 122.580562 
L 412.890501 125.662828 
L 412.701116 128.741779 
L 412.350745 131.812473 
L 411.839954 134.870005 
L 411.16955 137.909486 
L 410.34065 140.926051 
L 409.354492 143.914872 
L 408.212775 146.871176 
L 406.917252 149.790225 
L 405.470001 152.667353 
L 403.873343 155.497957 
L 402.129836 158.277508 
L 400.242212 161.001558 
L 398.213564 163.665754 
L 396.047121 166.26583 
L 393.746318 168.797628 
L 391.314885 171.257098 
L 388.756669 173.640304 
L 386.075792 175.943436 
L 383.276499 178.162807 
L 380.363307 180.294868 
L 377.340915 182.336209 
L 374.214082 184.283562 
L 370.987816 186.133814 
L 367.667312 187.884002 
L 364.257889 189.531329 
L 360.764965 191.073161 
L 357.19416 192.50703 
L 353.551167 193.830638 
L 349.841819 195.041872 
L 346.072052 196.138794 
L 342.247904 197.119648 
L 338.375465 197.982866 
L 334.460954 198.727067 
L 330.510649 199.351061 
L 326.530831 199.85385 
L 322.527881 200.23463 
L 318.508198 200.492786 
L 314.478234 200.627909 
L 310.444421 200.639789 
L 306.41322 200.5284 
L 302.391064 200.293918 
L 298.384399 199.93672 
L 294.399633 199.457381 
L 290.443136 198.856667 
L 286.521242 198.135538 
L 282.640226 197.295147 
L 278.806294 196.336838 
L 275.025575 195.262147 
L 271.304124 194.072789 
L 267.647895 192.77067 
L 264.062732 191.357872 
L 260.554375 189.836653 
L 257.128432 188.209449 
L 253.790386 186.478865 
L 250.545574 184.647665 
L 247.399192 182.718782 
L 244.356271 180.695298 
L 235.435874 174.445262 
L 232.323521 172.484093 
L 229.11418 170.616637 
L 225.810508 168.847914 
L 222.417129 167.181328 
L 218.939301 165.619702 
L 215.382544 164.165579 
L 211.752539 162.821295 
L 208.055085 161.589004 
L 204.2961 160.470682 
L 200.481596 159.468113 
L 196.617674 158.582902 
L 192.710515 157.816468 
L 188.766374 157.170032 
L 184.791559 156.644632 
L 180.792427 156.241108 
L 176.775378 155.960111 
L 172.746835 155.802081 
L 168.713245 155.767275 
L 164.681061 155.855748 
L 164.681061 155.855748 
" style="fill:none;stroke:#1f77b4;stroke-linecap:square;stroke-width:1.5;"/>
   </g>
   <g id="patch_3">
    <path d="M 57.6 307.584 
L 57.6 41.472 
" style="fill:none;stroke:#000000;stroke-linecap:square;stroke-linejoin:miter;stroke-width:0.8;"/>
   </g>
   <g id="patch_4">
    <path d="M 414.72 307.584 
L 414.72 41.472 
" style="fill:none;stroke:#000000;stroke-linecap:square;stroke-linejoin:miter;stroke-width:0.8;"/>
   </g>
   <g id="patch_5">
    <path d="M 57.6 307.584 
L 414.72 307.584 
" style="fill:none;stroke:#000000;stroke-linecap:square;stroke-linejoin:miter;stroke-width:0.8;"/>
   </g>
   <g id="patch_6">
    <path d="M 57.6 41.472 
L 414.72 41.472 
" style="fill:none;stroke:#000000;stroke-linecap:square;stroke-linejoin:miter;stroke-width:0.8;"/>
   </g>
   <g id="text_16">
    <!-- Simulated Robot Path -->
    <defs>
     <path d="M 53.515625 70.515625 
L 53.515625 60.890625 
Q 47.90625 63.578125 42.921875 64.890625 
Q 37.9375 66.21875 33.296875 66.21875 
Q 25.25 66.21875 20.875 63.09375 
Q 16.5 59.96875 16.5 54.203125 
Q 16.5 49.359375 19.40625 46.890625 
Q 22.3125 44.4375 30.421875 42.921875 
L 36.375 41.703125 
Q 47.40625 39.59375 52.65625 34.296875 
Q 57.90625 29 57.90625 20.125 
Q 57.90625 9.515625 50.796875 4.046875 
Q 43.703125 -1.421875 29.984375 -1.421875 
Q 24.8125 -1.421875 18.96875 -0.25 
Q 13.140625 0.921875 6.890625 3.21875 
L 6.890625 13.375 
Q 12.890625 10.015625 18.65625 8.296875 
Q 24.421875 6.59375 29.984375 6.59375 
Q 38.421875 6.59375 43.015625 9.90625 
Q 47.609375 13.234375 47.609375 19.390625 
Q 47.609375 24.75 44.3125 27.78125 
Q 41.015625 30.8125 33.5 32.328125 
L 27.484375 33.5 
Q 16.453125 35.6875 11.515625 40.375 
Q 6.59375 45.0625 6.59375 53.421875 
Q 6.59375 63.09375 13.40625 68.65625 
Q 20.21875 74.21875 32.171875 74.21875 
Q 37.3125 74.21875 42.625 73.28125 
Q 47.953125 72.359375 53.515625 70.515625 
z
" id="DejaVuSans-53"/>
     <path d="M 9.421875 54.6875 
L 18.40625 54.6875 
L 18.40625 0 
L 9.421875 0 
z
M 9.421875 75.984375 
L 18.40625 75.984375 
L 18.40625 64.59375 
L 9.421875 64.59375 
z
" id="DejaVuSans-69"/>
     <path d="M 52 44.1875 
Q 55.375 50.25 60.0625 53.125 
Q 64.75 56 71.09375 56 
Q 79.640625 56 84.28125 50.015625 
Q 88.921875 44.046875 88.921875 33.015625 
L 88.921875 0 
L 79.890625 0 
L 79.890625 32.71875 
Q 79.890625 40.578125 77.09375 44.375 
Q 74.3125 48.1875 68.609375 48.1875 
Q 61.625 48.1875 57.5625 43.546875 
Q 53.515625 38.921875 53.515625 30.90625 
L 53.515625 0 
L 44.484375 0 
L 44.484375 32.71875 
Q 44.484375 40.625 41.703125 44.40625 
Q 38.921875 48.1875 33.109375 48.1875 
Q 26.21875 48.1875 22.15625 43.53125 
Q 18.109375 38.875 18.109375 30.90625 
L 18.109375 0 
L 9.078125 0 
L 9.078125 54.6875 
L 18.109375 54.6875 
L 18.109375 46.1875 
Q 21.1875 51.21875 25.484375 53.609375 
Q 29.78125 56 35.6875 56 
Q 41.65625 56 45.828125 52.96875 
Q 50 49.953125 52 44.1875 
z
" id="DejaVuSans-6d"/>
     <path d="M 8.5 21.578125 
L 8.5 54.6875 
L 17.484375 54.6875 
L 17.484375 21.921875 
Q 17.484375 14.15625 20.5 10.265625 
Q 23.53125 6.390625 29.59375 6.390625 
Q 36.859375 6.390625 41.078125 11.03125 
Q 45.3125 15.671875 45.3125 23.6875 
L 45.3125 54.6875 
L 54.296875 54.6875 
L 54.296875 0 
L 45.3125 0 
L 45.3125 8.40625 
Q 42.046875 3.421875 37.71875 1 
Q 33.40625 -1.421875 27.6875 -1.421875 
Q 18.265625 -1.421875 13.375 4.4375 
Q 8.5 10.296875 8.5 21.578125 
z
M 31.109375 56 
z
" id="DejaVuSans-75"/>
     <path d="M 9.421875 75.984375 
L 18.40625 75.984375 
L 18.40625 0 
L 9.421875 0 
z
" id="DejaVuSans-6c"/>
     <path d="M 34.28125 27.484375 
Q 23.390625 27.484375 19.1875 25 
Q 14.984375 22.515625 14.984375 16.5 
Q 14.984375 11.71875 18.140625 8.90625 
Q 21.296875 6.109375 26.703125 6.109375 
Q 34.1875 6.109375 38.703125 11.40625 
Q 43.21875 16.703125 43.21875 25.484375 
L 43.21875 27.484375 
z
M 52.203125 31.203125 
L 52.203125 0 
L 43.21875 0 
L 43.21875 8.296875 
Q 40.140625 3.328125 35.546875 0.953125 
Q 30.953125 -1.421875 24.3125 -1.421875 
Q 15.921875 -1.421875 10.953125 3.296875 
Q 6 8.015625 6 15.921875 
Q 6 25.140625 12.171875 29.828125 
Q 18.359375 34.515625 30.609375 34.515625 
L 43.21875 34.515625 
L 43.21875 35.40625 
Q 43.21875 41.609375 39.140625 45 
Q 35.0625 48.390625 27.6875 48.390625 
Q 23 48.390625 18.546875 47.265625 
Q 14.109375 46.140625 10.015625 43.890625 
L 10.015625 52.203125 
Q 14.9375 54.109375 19.578125 55.046875 
Q 24.21875 56 28.609375 56 
Q 40.484375 56 46.34375 49.84375 
Q 52.203125 43.703125 52.203125 31.203125 
z
" id="DejaVuSans-61"/>
     <path d="M 18.3125 70.21875 
L 18.3125 54.6875 
L 36.8125 54.6875 
L 36.8125 47.703125 
L 18.3125 47.703125 
L 18.3125 18.015625 
Q 18.3125 11.328125 20.140625 9.421875 
Q 21.96875 7.515625 27.59375 7.515625 
L 36.8125 7.515625 
L 36.8125 0 
L 27.59375 0 
Q 17.1875 0 13.234375 3.875 
Q 9.28125 7.765625 9.28125 18.015625 
L 9.28125 47.703125 
L 2.6875 47.703125 
L 2.6875 54.6875 
L 9.28125 54.6875 
L 9.28125 70.21875 
z
" id="DejaVuSans-74"/>
     <path d="M 56.203125 29.59375 
L 56.203125 25.203125 
L 14.890625 25.203125 
Q 15.484375 15.921875 20.484375 11.0625 
Q 25.484375 6.203125 34.421875 6.203125 
Q 39.59375 6.203125 44.453125 7.46875 
Q 49.3125 8.734375 54.109375 11.28125 
L 54.109375 2.78125 
Q 49.265625 0.734375 44.1875 -0.34375 
Q 39.109375 -1.421875 33.890625 -1.421875 
Q 20.796875 -1.421875 13.15625 6.1875 
Q 5.515625 13.8125 5.515625 26.8125 
Q 5.515625 40.234375 12.765625 48.109375 
Q 20.015625 56 32.328125 56 
Q 43.359375 56 49.78125 48.890625 
Q 56.203125 41.796875 56.203125 29.59375 
z
M 47.21875 32.234375 
Q 47.125 39.59375 43.09375 43.984375 
Q 39.0625 48.390625 32.421875 48.390625 
Q 24.90625 48.390625 20.390625 44.140625 
Q 15.875 39.890625 15.1875 32.171875 
z
" id="DejaVuSans-65"/>
     <path d="M 45.40625 46.390625 
L 45.40625 75.984375 
L 54.390625 75.984375 
L 54.390625 0 
L 45.40625 0 
L 45.40625 8.203125 
Q 42.578125 3.328125 38.25 0.953125 
Q 33.9375 -1.421875 27.875 -1.421875 
Q 17.96875 -1.421875 11.734375 6.484375 
Q 5.515625 14.40625 5.515625 27.296875 
Q 5.515625 40.1875 11.734375 48.09375 
Q 17.96875 56 27.875 56 
Q 33.9375 56 38.25 53.625 
Q 42.578125 51.265625 45.40625 46.390625 
z
M 14.796875 27.296875 
Q 14.796875 17.390625 18.875 11.75 
Q 22.953125 6.109375 30.078125 6.109375 
Q 37.203125 6.109375 41.296875 11.75 
Q 45.40625 17.390625 45.40625 27.296875 
Q 45.40625 37.203125 41.296875 42.84375 
Q 37.203125 48.484375 30.078125 48.484375 
Q 22.953125 48.484375 18.875 42.84375 
Q 14.796875 37.203125 14.796875 27.296875 
z
" id="DejaVuSans-64"/>
     <path id="DejaVuSans-20"/>
     <path d="M 44.390625 34.1875 
Q 47.5625 33.109375 50.5625 29.59375 
Q 53.5625 26.078125 56.59375 19.921875 
L 66.609375 0 
L 56 0 
L 46.6875 18.703125 
Q 43.0625 26.03125 39.671875 28.421875 
Q 36.28125 30.8125 30.421875 30.8125 
L 19.671875 30.8125 
L 19.671875 0 
L 9.8125 0 
L 9.8125 72.90625 
L 32.078125 72.90625 
Q 44.578125 72.90625 50.734375 67.671875 
Q 56.890625 62.453125 56.890625 51.90625 
Q 56.890625 45.015625 53.6875 40.46875 
Q 50.484375 35.9375 44.390625 34.1875 
z
M 19.671875 64.796875 
L 19.671875 38.921875 
L 32.078125 38.921875 
Q 39.203125 38.921875 42.84375 42.21875 
Q 46.484375 45.515625 46.484375 51.90625 
Q 46.484375 58.296875 42.84375 61.546875 
Q 39.203125 64.796875 32.078125 64.796875 
z
" id="DejaVuSans-52"/>
     <path d="M 30.609375 48.390625 
Q 23.390625 48.390625 19.1875 42.75 
Q 14.984375 37.109375 14.984375 27.296875 
Q 14.984375 17.484375 19.15625 11.84375 
Q 23.34375 6.203125 30.609375 6.203125 
Q 37.796875 6.203125 41.984375 11.859375 
Q 46.1875 17.53125 46.1875 27.296875 
Q 46.1875 37.015625 41.984375 42.703125 
Q 37.796875 48.390625 30.609375 48.390625 
z
M 30.609375 56 
Q 42.328125 56 49.015625 48.375 
Q 55.71875 40.765625 55.71875 27.296875 
Q 55.71875 13.875 49.015625 6.21875 
Q 42.328125 -1.421875 30.609375 -1.421875 
Q 18.84375 -1.421875 12.171875 6.21875 
Q 5.515625 13.875 5.515625 27.296875 
Q 5.515625 40.765625 12.171875 48.375 
Q 18.84375 56 30.609375 56 
z
" id="DejaVuSans-6f"/>
     <path d="M 48.6875 27.296875 
Q 48.6875 37.203125 44.609375 42.84375 
Q 40.53125 48.484375 33.40625 48.484375 
Q 26.265625 48.484375 22.1875 42.84375 
Q 18.109375 37.203125 18.109375 27.296875 
Q 18.109375 17.390625 22.1875 11.75 
Q 26.265625 6.109375 33.40625 6.109375 
Q 40.53125 6.109375 44.609375 11.75 
Q 48.6875 17.390625 48.6875 27.296875 
z
M 18.109375 46.390625 
Q 20.953125 51.265625 25.265625 53.625 
Q 29.59375 56 35.59375 56 
Q 45.5625 56 51.78125 48.09375 
Q 58.015625 40.1875 58.015625 27.296875 
Q 58.015625 14.40625 51.78125 6.484375 
Q 45.5625 -1.421875 35.59375 -1.421875 
Q 29.59375 -1.421875 25.265625 0.953125 
Q 20.953125 3.328125 18.109375 8.203125 
L 18.109375 0 
L 9.078125 0 
L 9.078125 75.984375 
L 18.109375 75.984375 
z
" id="DejaVuSans-62"/>
     <path d="M 19.671875 64.796875 
L 19.671875 37.40625 
L 32.078125 37.40625 
Q 38.96875 37.40625 42.71875 40.96875 
Q 46.484375 44.53125 46.484375 51.125 
Q 46.484375 57.671875 42.71875 61.234375 
Q 38.96875 64.796875 32.078125 64.796875 
z
M 9.8125 72.90625 
L 32.078125 72.90625 
Q 44.34375 72.90625 50.609375 67.359375 
Q 56.890625 61.8125 56.890625 51.125 
Q 56.890625 40.328125 50.609375 34.8125 
Q 44.34375 29.296875 32.078125 29.296875 
L 19.671875 29.296875 
L 19.671875 0 
L 9.8125 0 
z
" id="DejaVuSans-50"/>
     <path d="M 54.890625 33.015625 
L 54.890625 0 
L 45.90625 0 
L 45.90625 32.71875 
Q 45.90625 40.484375 42.875 44.328125 
Q 39.84375 48.1875 33.796875 48.1875 
Q 26.515625 48.1875 22.3125 43.546875 
Q 18.109375 38.921875 18.109375 30.90625 
L 18.109375 0 
L 9.078125 0 
L 9.078125 75.984375 
L 18.109375 75.984375 
L 18.109375 46.1875 
Q 21.34375 51.125 25.703125 53.5625 
Q 30.078125 56 35.796875 56 
Q 45.21875 56 50.046875 50.171875 
Q 54.890625 44.34375 54.890625 33.015625 
z
" id="DejaVuSans-68"/>
    </defs>
    <g transform="translate(170.911875 35.472)scale(0.12 -0.12)">
     <use xlink:href="#DejaVuSans-53"/>
     <use x="63.476562" xlink:href="#DejaVuSans-69"/>
     <use x="91.259766" xlink:href="#DejaVuSans-6d"/>
     <use x="188.671875" xlink:href="#DejaVuSans-75"/>
     <use x="252.050781" xlink:href="#DejaVuSans-6c"/>
     <use x="279.833984" xlink:href="#DejaVuSans-61"/>
     <use x="341.113281" xlink:href="#DejaVuSans-74"/>
     <use x="380.322266" xlink:href="#DejaVuSans-65"/>
     <use x="441.845703" xlink:href="#DejaVuSans-64"/>
     <use x="505.322266" xlink:href="#DejaVuSans-20"/>
     <use x="537.109375" xlink:href="#DejaVuSans-52"/>
     <use x="606.529297" xlink:href="#DejaVuSans-6f"/>
     <use x="667.710938" xlink:href="#DejaVuSans-62"/>
     <use x="731.1875" xlink:href="#DejaVuSans-6f"/>
     <use x="792.369141" xlink:href="#DejaVuSans-74"/>
     <use x="831.578125" xlink:href="#DejaVuSans-20"/>
     <use x="863.365234" xlink:href="#DejaVuSans-50"/>
     <use x="923.605469" xlink:href="#DejaVuSans-61"/>
     <use x="984.884766" xlink:href="#DejaVuSans-74"/>
     <use x="1024.09375" xlink:href="#DejaVuSans-68"/>
    </g>
   </g>
  </g>
 </g>
 <defs>
  <clipPath id="p67d821877e">
   <rect height="266.112" width="357.12" x="57.6" y="41.472"/>
  </clipPath>
 </defs>
</svg>
